<svg width="648" height="576" viewBox="0 0 648 576" fill="none" xmlns="http://www.w3.org/2000/svg">
<rect x="2" y="66" width="644" height="444" rx="42" fill="#F5EDEC" stroke="url(#paint0_linear_91_1144)" stroke-width="4"/>
<g opacity="0.3" filter="url(#filter0_f_91_1144)">
<circle cx="324" cy="288" r="144" fill="#C72C18"/>
</g>
<rect x="206" y="170" width="236" height="236" rx="22" fill="url(#paint1_linear_91_1144)"/>
<rect x="206" y="170" width="236" height="236" rx="22" stroke="url(#paint2_linear_91_1144)" stroke-width="4"/>
<path d="M324 232.167C326.096 232.167 328.162 232.28 330.198 232.507C330.926 232.588 331.632 232.811 332.275 233.165C332.917 233.518 333.484 233.995 333.942 234.567C334.4 235.139 334.741 235.796 334.946 236.501C335.15 237.205 335.214 237.942 335.133 238.671C335.053 239.4 334.829 240.106 334.476 240.748C334.122 241.391 333.646 241.957 333.073 242.416C332.501 242.874 331.844 243.215 331.14 243.419C330.436 243.624 329.698 243.688 328.969 243.607C319.768 242.578 310.475 244.433 302.374 248.916C294.273 253.4 287.766 260.289 283.752 268.632C279.739 276.976 278.417 286.36 279.969 295.487C281.522 304.615 285.873 313.034 292.419 319.581C298.966 326.127 307.385 330.478 316.513 332.031C325.64 333.583 335.024 332.261 343.368 328.248C351.711 324.234 358.601 317.727 363.084 309.626C367.567 301.525 369.422 292.232 368.393 283.031C368.313 282.302 368.376 281.564 368.581 280.86C368.785 280.156 369.126 279.499 369.584 278.927C370.51 277.771 371.857 277.03 373.329 276.867C374.801 276.704 376.277 277.132 377.433 278.058C378.005 278.516 378.482 279.083 378.835 279.725C379.189 280.368 379.412 281.074 379.493 281.802C379.716 283.839 379.83 285.904 379.833 288C379.833 318.837 354.837 343.833 324 343.833C293.163 343.833 268.167 318.837 268.167 288C268.167 257.163 293.163 232.167 324 232.167ZM323.821 264.98C324.189 266.413 323.973 267.934 323.221 269.208C322.468 270.482 321.24 271.405 319.807 271.775C315.87 272.806 312.443 275.235 310.165 278.607C307.887 281.98 306.914 286.066 307.427 290.103C307.94 294.14 309.905 297.853 312.955 300.548C316.004 303.243 319.93 304.737 324 304.75C327.715 304.752 331.324 303.518 334.262 301.244C337.199 298.97 339.297 295.784 340.225 292.187C340.621 290.782 341.551 289.588 342.817 288.861C344.082 288.133 345.582 287.93 346.996 288.295C348.409 288.66 349.623 289.564 350.378 290.814C351.133 292.063 351.369 293.558 351.035 294.979C349.322 301.545 345.277 307.262 339.657 311.063C334.036 314.865 327.224 316.49 320.492 315.635C313.761 314.78 307.571 311.503 303.079 306.418C298.587 301.332 296.101 294.785 296.083 288C296.082 281.81 298.139 275.796 301.929 270.902C305.719 266.008 311.028 262.513 317.021 260.965C317.731 260.782 318.47 260.741 319.196 260.844C319.922 260.946 320.621 261.191 321.253 261.564C321.884 261.937 322.436 262.43 322.877 263.016C323.318 263.603 323.639 264.27 323.821 264.98ZM360.314 232.876C361.333 233.298 362.204 234.013 362.817 234.93C363.431 235.848 363.758 236.926 363.759 238.029V248.247H373.971C375.075 248.247 376.154 248.574 377.072 249.188C377.99 249.801 378.706 250.673 379.128 251.693C379.551 252.714 379.661 253.836 379.446 254.919C379.23 256.002 378.699 256.997 377.918 257.777L358.17 277.503C357.123 278.55 355.703 279.139 354.223 279.139H340.75L330.544 289.351C329.496 290.399 328.075 290.987 326.594 290.987C325.112 290.987 323.691 290.399 322.643 289.351C321.596 288.303 321.007 286.883 321.007 285.401C321.007 283.919 321.596 282.498 322.643 281.451L332.855 271.25V257.772C332.856 256.291 333.444 254.871 334.491 253.824L354.228 234.082C355.009 233.3 356.004 232.768 357.087 232.553C358.171 232.337 359.294 232.447 360.314 232.87M352.592 251.502L344.022 260.083V267.978H351.917L360.493 259.408H358.176C356.695 259.408 355.275 258.819 354.228 257.772C353.181 256.725 352.592 255.305 352.592 253.824V251.502Z" fill="#C72C18"/>
<defs>
<filter id="filter0_f_91_1144" x="36" y="0" width="576" height="576" filterUnits="userSpaceOnUse" color-interpolation-filters="sRGB">
<feFlood flood-opacity="0" result="BackgroundImageFix"/>
<feBlend mode="normal" in="SourceGraphic" in2="BackgroundImageFix" result="shape"/>
<feGaussianBlur stdDeviation="72" result="effect1_foregroundBlur_91_1144"/>
</filter>
<linearGradient id="paint0_linear_91_1144" x1="192.571" y1="-32.1786" x2="648.566" y2="409.981" gradientUnits="userSpaceOnUse">
<stop stop-color="white" stop-opacity="0.4"/>
<stop offset="0.1" stop-color="#F6F7F9"/>
<stop offset="0.9" stop-color="#F6F7F9" stop-opacity="0.0901961"/>
<stop offset="1" stop-color="white" stop-opacity="0.4"/>
</linearGradient>
<linearGradient id="paint1_linear_91_1144" x1="324" y1="168" x2="324" y2="408" gradientUnits="userSpaceOnUse">
<stop stop-color="white"/>
<stop offset="1" stop-color="#F3F3F3"/>
</linearGradient>
<linearGradient id="paint2_linear_91_1144" x1="274.714" y1="113.357" x2="504.411" y2="266.483" gradientUnits="userSpaceOnUse">
<stop stop-color="white" stop-opacity="0.4"/>
<stop offset="0.1" stop-color="#F6F7F9"/>
<stop offset="0.9" stop-color="#F6F7F9" stop-opacity="0.0901961"/>
<stop offset="1" stop-color="white" stop-opacity="0.4"/>
</linearGradient>
</defs>
</svg>
