<svg width="1440" height="3849" viewBox="0 0 1440 3849" fill="none" xmlns="http://www.w3.org/2000/svg">
<g opacity="0.15" clip-path="url(#clip0_2034_67)">
<mask id="path-1-inside-1_2034_67" fill="white">
<path d="M0 0H180V180H0V0Z"/>
</mask>
<path d="M180 180V178.5H0V180V181.5H180V180Z" fill="black" mask="url(#path-1-inside-1_2034_67)"/>
<mask id="path-3-inside-2_2034_67" fill="white">
<path d="M180 0H360V180H180V0Z"/>
</mask>
<path d="M180 180H178.5V181.5H180V180ZM360 180V178.5H180V180V181.5H360V180ZM180 180H181.5V0H180H178.5V180H180Z" fill="black" mask="url(#path-3-inside-2_2034_67)"/>
<mask id="path-5-inside-3_2034_67" fill="white">
<path d="M360 0H540V180H360V0Z"/>
</mask>
<path d="M360 180H358.5V181.5H360V180ZM540 180V178.5H360V180V181.5H540V180ZM360 180H361.5V0H360H358.5V180H360Z" fill="black" mask="url(#path-5-inside-3_2034_67)"/>
<mask id="path-7-inside-4_2034_67" fill="white">
<path d="M540 0H720V180H540V0Z"/>
</mask>
<path d="M540 180H538.5V181.5H540V180ZM720 180V178.5H540V180V181.5H720V180ZM540 180H541.5V0H540H538.5V180H540Z" fill="black" mask="url(#path-7-inside-4_2034_67)"/>
<mask id="path-9-inside-5_2034_67" fill="white">
<path d="M720 0H900V180H720V0Z"/>
</mask>
<path d="M720 180H718.5V181.5H720V180ZM900 180V178.5H720V180V181.5H900V180ZM720 180H721.5V0H720H718.5V180H720Z" fill="black" mask="url(#path-9-inside-5_2034_67)"/>
<mask id="path-11-inside-6_2034_67" fill="white">
<path d="M900 0H1080V180H900V0Z"/>
</mask>
<path d="M900 0H1080V180H900V0Z" fill="black" fill-opacity="0.3"/>
<path d="M900 180H898.5V181.5H900V180ZM1080 180V178.5H900V180V181.5H1080V180ZM900 180H901.5V0H900H898.5V180H900Z" fill="black" mask="url(#path-11-inside-6_2034_67)"/>
<mask id="path-13-inside-7_2034_67" fill="white">
<path d="M1080 0H1260V180H1080V0Z"/>
</mask>
<path d="M1080 180H1078.5V181.5H1080V180ZM1260 180V178.5H1080V180V181.5H1260V180ZM1080 180H1081.5V0H1080H1078.5V180H1080Z" fill="black" mask="url(#path-13-inside-7_2034_67)"/>
<mask id="path-15-inside-8_2034_67" fill="white">
<path d="M1260 0H1440V180H1260V0Z"/>
</mask>
<path d="M1260 180H1258.5V181.5H1260V180ZM1440 180V178.5H1260V180V181.5H1440V180ZM1260 180H1261.5V0H1260H1258.5V180H1260Z" fill="black" mask="url(#path-15-inside-8_2034_67)"/>
<mask id="path-17-inside-9_2034_67" fill="white">
<path d="M0 180H180V360H0V180Z"/>
</mask>
<path d="M180 360V358.5H0V360V361.5H180V360Z" fill="black" mask="url(#path-17-inside-9_2034_67)"/>
<mask id="path-19-inside-10_2034_67" fill="white">
<path d="M180 180H360V360H180V180Z"/>
</mask>
<path d="M180 360H178.5V361.5H180V360ZM360 360V358.5H180V360V361.5H360V360ZM180 360H181.5V180H180H178.5V360H180Z" fill="black" mask="url(#path-19-inside-10_2034_67)"/>
<mask id="path-21-inside-11_2034_67" fill="white">
<path d="M360 180H540V360H360V180Z"/>
</mask>
<path d="M360 180H540V360H360V180Z" fill="black" fill-opacity="0.3"/>
<path d="M360 360H358.5V361.5H360V360ZM540 360V358.5H360V360V361.5H540V360ZM360 360H361.5V180H360H358.5V360H360Z" fill="black" mask="url(#path-21-inside-11_2034_67)"/>
<mask id="path-23-inside-12_2034_67" fill="white">
<path d="M540 180H720V360H540V180Z"/>
</mask>
<path d="M540 360H538.5V361.5H540V360ZM720 360V358.5H540V360V361.5H720V360ZM540 360H541.5V180H540H538.5V360H540Z" fill="black" mask="url(#path-23-inside-12_2034_67)"/>
<mask id="path-25-inside-13_2034_67" fill="white">
<path d="M720 180H900V360H720V180Z"/>
</mask>
<path d="M720 360H718.5V361.5H720V360ZM900 360V358.5H720V360V361.5H900V360ZM720 360H721.5V180H720H718.5V360H720Z" fill="black" mask="url(#path-25-inside-13_2034_67)"/>
<mask id="path-27-inside-14_2034_67" fill="white">
<path d="M900 180H1080V360H900V180Z"/>
</mask>
<path d="M900 360H898.5V361.5H900V360ZM1080 360V358.5H900V360V361.5H1080V360ZM900 360H901.5V180H900H898.5V360H900Z" fill="black" mask="url(#path-27-inside-14_2034_67)"/>
<mask id="path-29-inside-15_2034_67" fill="white">
<path d="M1080 180H1260V360H1080V180Z"/>
</mask>
<path d="M1080 360H1078.5V361.5H1080V360ZM1260 360V358.5H1080V360V361.5H1260V360ZM1080 360H1081.5V180H1080H1078.5V360H1080Z" fill="black" mask="url(#path-29-inside-15_2034_67)"/>
<mask id="path-31-inside-16_2034_67" fill="white">
<path d="M1260 180H1440V360H1260V180Z"/>
</mask>
<path d="M1260 360H1258.5V361.5H1260V360ZM1440 360V358.5H1260V360V361.5H1440V360ZM1260 360H1261.5V180H1260H1258.5V360H1260Z" fill="black" mask="url(#path-31-inside-16_2034_67)"/>
<mask id="path-33-inside-17_2034_67" fill="white">
<path d="M0 360H180V540H0V360Z"/>
</mask>
<path d="M180 540V538.5H0V540V541.5H180V540Z" fill="black" mask="url(#path-33-inside-17_2034_67)"/>
<mask id="path-35-inside-18_2034_67" fill="white">
<path d="M180 360H360V540H180V360Z"/>
</mask>
<path d="M180 540H178.5V541.5H180V540ZM360 540V538.5H180V540V541.5H360V540ZM180 540H181.5V360H180H178.5V540H180Z" fill="black" mask="url(#path-35-inside-18_2034_67)"/>
<mask id="path-37-inside-19_2034_67" fill="white">
<path d="M360 360H540V540H360V360Z"/>
</mask>
<path d="M360 540H358.5V541.5H360V540ZM540 540V538.5H360V540V541.5H540V540ZM360 540H361.5V360H360H358.5V540H360Z" fill="black" mask="url(#path-37-inside-19_2034_67)"/>
<mask id="path-39-inside-20_2034_67" fill="white">
<path d="M540 360H720V540H540V360Z"/>
</mask>
<path d="M540 540H538.5V541.5H540V540ZM720 540V538.5H540V540V541.5H720V540ZM540 540H541.5V360H540H538.5V540H540Z" fill="black" mask="url(#path-39-inside-20_2034_67)"/>
<mask id="path-41-inside-21_2034_67" fill="white">
<path d="M720 360H900V540H720V360Z"/>
</mask>
<path d="M720 540H718.5V541.5H720V540ZM900 540V538.5H720V540V541.5H900V540ZM720 540H721.5V360H720H718.5V540H720Z" fill="black" mask="url(#path-41-inside-21_2034_67)"/>
<mask id="path-43-inside-22_2034_67" fill="white">
<path d="M900 360H1080V540H900V360Z"/>
</mask>
<path d="M900 360H1080V540H900V360Z" fill="black" fill-opacity="0.3"/>
<path d="M900 540H898.5V541.5H900V540ZM1080 540V538.5H900V540V541.5H1080V540ZM900 540H901.5V360H900H898.5V540H900Z" fill="black" mask="url(#path-43-inside-22_2034_67)"/>
<mask id="path-45-inside-23_2034_67" fill="white">
<path d="M1080 360H1260V540H1080V360Z"/>
</mask>
<path d="M1080 540H1078.5V541.5H1080V540ZM1260 540V538.5H1080V540V541.5H1260V540ZM1080 540H1081.5V360H1080H1078.5V540H1080Z" fill="black" mask="url(#path-45-inside-23_2034_67)"/>
<mask id="path-47-inside-24_2034_67" fill="white">
<path d="M1260 360H1440V540H1260V360Z"/>
</mask>
<path d="M1260 540H1258.5V541.5H1260V540ZM1440 540V538.5H1260V540V541.5H1440V540ZM1260 540H1261.5V360H1260H1258.5V540H1260Z" fill="black" mask="url(#path-47-inside-24_2034_67)"/>
<mask id="path-49-inside-25_2034_67" fill="white">
<path d="M0 540H180V720H0V540Z"/>
</mask>
<path d="M0 540H180V720H0V540Z" fill="black" fill-opacity="0.3"/>
<path d="M180 720V718.5H0V720V721.5H180V720Z" fill="black" mask="url(#path-49-inside-25_2034_67)"/>
<mask id="path-51-inside-26_2034_67" fill="white">
<path d="M180 540H360V720H180V540Z"/>
</mask>
<path d="M180 720H178.5V721.5H180V720ZM360 720V718.5H180V720V721.5H360V720ZM180 720H181.5V540H180H178.5V720H180Z" fill="black" mask="url(#path-51-inside-26_2034_67)"/>
<mask id="path-53-inside-27_2034_67" fill="white">
<path d="M360 540H540V720H360V540Z"/>
</mask>
<path d="M360 720H358.5V721.5H360V720ZM540 720V718.5H360V720V721.5H540V720ZM360 720H361.5V540H360H358.5V720H360Z" fill="black" mask="url(#path-53-inside-27_2034_67)"/>
<mask id="path-55-inside-28_2034_67" fill="white">
<path d="M540 540H720V720H540V540Z"/>
</mask>
<path d="M540 540H720V720H540V540Z" fill="black" fill-opacity="0.3"/>
<path d="M540 720H538.5V721.5H540V720ZM720 720V718.5H540V720V721.5H720V720ZM540 720H541.5V540H540H538.5V720H540Z" fill="black" mask="url(#path-55-inside-28_2034_67)"/>
<mask id="path-57-inside-29_2034_67" fill="white">
<path d="M720 540H900V720H720V540Z"/>
</mask>
<path d="M720 720H718.5V721.5H720V720ZM900 720V718.5H720V720V721.5H900V720ZM720 720H721.5V540H720H718.5V720H720Z" fill="black" mask="url(#path-57-inside-29_2034_67)"/>
<mask id="path-59-inside-30_2034_67" fill="white">
<path d="M900 540H1080V720H900V540Z"/>
</mask>
<path d="M900 720H898.5V721.5H900V720ZM1080 720V718.5H900V720V721.5H1080V720ZM900 720H901.5V540H900H898.5V720H900Z" fill="black" mask="url(#path-59-inside-30_2034_67)"/>
<mask id="path-61-inside-31_2034_67" fill="white">
<path d="M1080 540H1260V720H1080V540Z"/>
</mask>
<path d="M1080 720H1078.5V721.5H1080V720ZM1260 720V718.5H1080V720V721.5H1260V720ZM1080 720H1081.5V540H1080H1078.5V720H1080Z" fill="black" mask="url(#path-61-inside-31_2034_67)"/>
<mask id="path-63-inside-32_2034_67" fill="white">
<path d="M1260 540H1440V720H1260V540Z"/>
</mask>
<path d="M1260 720H1258.5V721.5H1260V720ZM1440 720V718.5H1260V720V721.5H1440V720ZM1260 720H1261.5V540H1260H1258.5V720H1260Z" fill="black" mask="url(#path-63-inside-32_2034_67)"/>
<mask id="path-65-inside-33_2034_67" fill="white">
<path d="M0 720H180V900H0V720Z"/>
</mask>
<path d="M180 900V898.5H0V900V901.5H180V900Z" fill="black" mask="url(#path-65-inside-33_2034_67)"/>
<mask id="path-67-inside-34_2034_67" fill="white">
<path d="M180 720H360V900H180V720Z"/>
</mask>
<path d="M180 720H360V900H180V720Z" fill="black" fill-opacity="0.3"/>
<path d="M180 900H178.5V901.5H180V900ZM360 900V898.5H180V900V901.5H360V900ZM180 900H181.5V720H180H178.5V900H180Z" fill="black" mask="url(#path-67-inside-34_2034_67)"/>
<mask id="path-69-inside-35_2034_67" fill="white">
<path d="M360 720H540V900H360V720Z"/>
</mask>
<path d="M360 900H358.5V901.5H360V900ZM540 900V898.5H360V900V901.5H540V900ZM360 900H361.5V720H360H358.5V900H360Z" fill="black" mask="url(#path-69-inside-35_2034_67)"/>
<mask id="path-71-inside-36_2034_67" fill="white">
<path d="M540 720H720V900H540V720Z"/>
</mask>
<path d="M540 900H538.5V901.5H540V900ZM720 900V898.5H540V900V901.5H720V900ZM540 900H541.5V720H540H538.5V900H540Z" fill="black" mask="url(#path-71-inside-36_2034_67)"/>
<mask id="path-73-inside-37_2034_67" fill="white">
<path d="M720 720H900V900H720V720Z"/>
</mask>
<path d="M720 900H718.5V901.5H720V900ZM900 900V898.5H720V900V901.5H900V900ZM720 900H721.5V720H720H718.5V900H720Z" fill="black" mask="url(#path-73-inside-37_2034_67)"/>
<mask id="path-75-inside-38_2034_67" fill="white">
<path d="M900 720H1080V900H900V720Z"/>
</mask>
<path d="M900 900H898.5V901.5H900V900ZM1080 900V898.5H900V900V901.5H1080V900ZM900 900H901.5V720H900H898.5V900H900Z" fill="black" mask="url(#path-75-inside-38_2034_67)"/>
<mask id="path-77-inside-39_2034_67" fill="white">
<path d="M1080 720H1260V900H1080V720Z"/>
</mask>
<path d="M1080 720H1260V900H1080V720Z" fill="black" fill-opacity="0.3"/>
<path d="M1080 900H1078.5V901.5H1080V900ZM1260 900V898.5H1080V900V901.5H1260V900ZM1080 900H1081.5V720H1080H1078.5V900H1080Z" fill="black" mask="url(#path-77-inside-39_2034_67)"/>
<mask id="path-79-inside-40_2034_67" fill="white">
<path d="M1260 720H1440V900H1260V720Z"/>
</mask>
<path d="M1260 900H1258.5V901.5H1260V900ZM1440 900V898.5H1260V900V901.5H1440V900ZM1260 900H1261.5V720H1260H1258.5V900H1260Z" fill="black" mask="url(#path-79-inside-40_2034_67)"/>
<mask id="path-81-inside-41_2034_67" fill="white">
<path d="M0 900H180V1080H0V900Z"/>
</mask>
<path d="M180 1080V1078.5H0V1080V1081.5H180V1080Z" fill="black" mask="url(#path-81-inside-41_2034_67)"/>
<mask id="path-83-inside-42_2034_67" fill="white">
<path d="M180 900H360V1080H180V900Z"/>
</mask>
<path d="M180 1080H178.5V1081.5H180V1080ZM360 1080V1078.5H180V1080V1081.5H360V1080ZM180 1080H181.5V900H180H178.5V1080H180Z" fill="black" mask="url(#path-83-inside-42_2034_67)"/>
<mask id="path-85-inside-43_2034_67" fill="white">
<path d="M360 900H540V1080H360V900Z"/>
</mask>
<path d="M360 1080H358.5V1081.5H360V1080ZM540 1080V1078.5H360V1080V1081.5H540V1080ZM360 1080H361.5V900H360H358.5V1080H360Z" fill="black" mask="url(#path-85-inside-43_2034_67)"/>
<mask id="path-87-inside-44_2034_67" fill="white">
<path d="M540 900H720V1080H540V900Z"/>
</mask>
<path d="M540 1080H538.5V1081.5H540V1080ZM720 1080V1078.5H540V1080V1081.5H720V1080ZM540 1080H541.5V900H540H538.5V1080H540Z" fill="black" mask="url(#path-87-inside-44_2034_67)"/>
<mask id="path-89-inside-45_2034_67" fill="white">
<path d="M720 900H900V1080H720V900Z"/>
</mask>
<path d="M720 900H900V1080H720V900Z" fill="black" fill-opacity="0.3"/>
<path d="M720 1080H718.5V1081.5H720V1080ZM900 1080V1078.5H720V1080V1081.5H900V1080ZM720 1080H721.5V900H720H718.5V1080H720Z" fill="black" mask="url(#path-89-inside-45_2034_67)"/>
<mask id="path-91-inside-46_2034_67" fill="white">
<path d="M900 900H1080V1080H900V900Z"/>
</mask>
<path d="M900 1080H898.5V1081.5H900V1080ZM1080 1080V1078.5H900V1080V1081.5H1080V1080ZM900 1080H901.5V900H900H898.5V1080H900Z" fill="black" mask="url(#path-91-inside-46_2034_67)"/>
<mask id="path-93-inside-47_2034_67" fill="white">
<path d="M1080 900H1260V1080H1080V900Z"/>
</mask>
<path d="M1080 1080H1078.5V1081.5H1080V1080ZM1260 1080V1078.5H1080V1080V1081.5H1260V1080ZM1080 1080H1081.5V900H1080H1078.5V1080H1080Z" fill="black" mask="url(#path-93-inside-47_2034_67)"/>
<mask id="path-95-inside-48_2034_67" fill="white">
<path d="M1260 900H1440V1080H1260V900Z"/>
</mask>
<path d="M1260 1080H1258.5V1081.5H1260V1080ZM1440 1080V1078.5H1260V1080V1081.5H1440V1080ZM1260 1080H1261.5V900H1260H1258.5V1080H1260Z" fill="black" mask="url(#path-95-inside-48_2034_67)"/>
<mask id="path-97-inside-49_2034_67" fill="white">
<path d="M0 1080H180V1260H0V1080Z"/>
</mask>
<path d="M180 1260V1258.5H0V1260V1261.5H180V1260Z" fill="black" mask="url(#path-97-inside-49_2034_67)"/>
<mask id="path-99-inside-50_2034_67" fill="white">
<path d="M180 1080H360V1260H180V1080Z"/>
</mask>
<path d="M180 1260H178.5V1261.5H180V1260ZM360 1260V1258.5H180V1260V1261.5H360V1260ZM180 1260H181.5V1080H180H178.5V1260H180Z" fill="black" mask="url(#path-99-inside-50_2034_67)"/>
<mask id="path-101-inside-51_2034_67" fill="white">
<path d="M360 1080H540V1260H360V1080Z"/>
</mask>
<path d="M360 1260H358.5V1261.5H360V1260ZM540 1260V1258.5H360V1260V1261.5H540V1260ZM360 1260H361.5V1080H360H358.5V1260H360Z" fill="black" mask="url(#path-101-inside-51_2034_67)"/>
<mask id="path-103-inside-52_2034_67" fill="white">
<path d="M540 1080H720V1260H540V1080Z"/>
</mask>
<path d="M540 1080H720V1260H540V1080Z" fill="black" fill-opacity="0.3"/>
<path d="M540 1260H538.5V1261.5H540V1260ZM720 1260V1258.5H540V1260V1261.5H720V1260ZM540 1260H541.5V1080H540H538.5V1260H540Z" fill="black" mask="url(#path-103-inside-52_2034_67)"/>
<mask id="path-105-inside-53_2034_67" fill="white">
<path d="M720 1080H900V1260H720V1080Z"/>
</mask>
<path d="M720 1260H718.5V1261.5H720V1260ZM900 1260V1258.5H720V1260V1261.5H900V1260ZM720 1260H721.5V1080H720H718.5V1260H720Z" fill="black" mask="url(#path-105-inside-53_2034_67)"/>
<mask id="path-107-inside-54_2034_67" fill="white">
<path d="M900 1080H1080V1260H900V1080Z"/>
</mask>
<path d="M900 1260H898.5V1261.5H900V1260ZM1080 1260V1258.5H900V1260V1261.5H1080V1260ZM900 1260H901.5V1080H900H898.5V1260H900Z" fill="black" mask="url(#path-107-inside-54_2034_67)"/>
<mask id="path-109-inside-55_2034_67" fill="white">
<path d="M1080 1080H1260V1260H1080V1080Z"/>
</mask>
<path d="M1080 1260H1078.5V1261.5H1080V1260ZM1260 1260V1258.5H1080V1260V1261.5H1260V1260ZM1080 1260H1081.5V1080H1080H1078.5V1260H1080Z" fill="black" mask="url(#path-109-inside-55_2034_67)"/>
<mask id="path-111-inside-56_2034_67" fill="white">
<path d="M1260 1080H1440V1260H1260V1080Z"/>
</mask>
<path d="M1260 1260H1258.5V1261.5H1260V1260ZM1440 1260V1258.5H1260V1260V1261.5H1440V1260ZM1260 1260H1261.5V1080H1260H1258.5V1260H1260Z" fill="black" mask="url(#path-111-inside-56_2034_67)"/>
<mask id="path-113-inside-57_2034_67" fill="white">
<path d="M0 1260H180V1440H0V1260Z"/>
</mask>
<path d="M0 1440H1.5V1260H0H-1.5V1440H0Z" fill="black" mask="url(#path-113-inside-57_2034_67)"/>
<mask id="path-115-inside-58_2034_67" fill="white">
<path d="M180 1260H360V1440H180V1260Z"/>
</mask>
<path d="M180 1440H181.5V1260H180H178.5V1440H180Z" fill="black" mask="url(#path-115-inside-58_2034_67)"/>
<mask id="path-117-inside-59_2034_67" fill="white">
<path d="M360 1260H540V1440H360V1260Z"/>
</mask>
<path d="M360 1440H361.5V1260H360H358.5V1440H360Z" fill="black" mask="url(#path-117-inside-59_2034_67)"/>
<mask id="path-119-inside-60_2034_67" fill="white">
<path d="M540 1260H720V1440H540V1260Z"/>
</mask>
<path d="M540 1440H541.5V1260H540H538.5V1440H540Z" fill="black" mask="url(#path-119-inside-60_2034_67)"/>
<mask id="path-121-inside-61_2034_67" fill="white">
<path d="M720 1260H900V1440H720V1260Z"/>
</mask>
<path d="M720 1440H721.5V1260H720H718.5V1440H720Z" fill="black" mask="url(#path-121-inside-61_2034_67)"/>
<mask id="path-123-inside-62_2034_67" fill="white">
<path d="M900 1260H1080V1440H900V1260Z"/>
</mask>
<path d="M900 1440H901.5V1260H900H898.5V1440H900Z" fill="black" mask="url(#path-123-inside-62_2034_67)"/>
<mask id="path-125-inside-63_2034_67" fill="white">
<path d="M1080 1260H1260V1440H1080V1260Z"/>
</mask>
<path d="M1080 1440H1081.5V1260H1080H1078.5V1440H1080Z" fill="black" mask="url(#path-125-inside-63_2034_67)"/>
<g filter="url(#filter0_f_2034_67)">
<circle cx="720" cy="720" r="1434" fill="url(#paint0_radial_2034_67)"/>
</g>
</g>
<g opacity="0.1" clip-path="url(#clip1_2034_67)">
<mask id="path-128-inside-64_2034_67" fill="white">
<path d="M-54 1440H139.5V1633.5H-54V1440Z"/>
</mask>
<path d="M139.5 1633.5V1631.89H-54V1633.5V1635.11H139.5V1633.5Z" fill="black" mask="url(#path-128-inside-64_2034_67)"/>
<mask id="path-130-inside-65_2034_67" fill="white">
<path d="M139.5 1440H333V1633.5H139.5V1440Z"/>
</mask>
<path d="M139.5 1633.5H137.888V1635.11H139.5V1633.5ZM333 1633.5V1631.89H139.5V1633.5V1635.11H333V1633.5ZM139.5 1633.5H141.112V1440H139.5H137.888V1633.5H139.5Z" fill="black" mask="url(#path-130-inside-65_2034_67)"/>
<mask id="path-132-inside-66_2034_67" fill="white">
<path d="M333 1440H526.5V1633.5H333V1440Z"/>
</mask>
<path d="M333 1633.5H331.388V1635.11H333V1633.5ZM526.5 1633.5V1631.89H333V1633.5V1635.11H526.5V1633.5ZM333 1633.5H334.612V1440H333H331.388V1633.5H333Z" fill="black" mask="url(#path-132-inside-66_2034_67)"/>
<mask id="path-134-inside-67_2034_67" fill="white">
<path d="M526.5 1440H720V1633.5H526.5V1440Z"/>
</mask>
<path d="M526.5 1633.5H524.888V1635.11H526.5V1633.5ZM720 1633.5V1631.89H526.5V1633.5V1635.11H720V1633.5ZM526.5 1633.5H528.112V1440H526.5H524.888V1633.5H526.5Z" fill="black" mask="url(#path-134-inside-67_2034_67)"/>
<mask id="path-136-inside-68_2034_67" fill="white">
<path d="M720 1440H913.5V1633.5H720V1440Z"/>
</mask>
<path d="M720 1633.5H718.388V1635.11H720V1633.5ZM913.5 1633.5V1631.89H720V1633.5V1635.11H913.5V1633.5ZM720 1633.5H721.612V1440H720H718.388V1633.5H720Z" fill="black" mask="url(#path-136-inside-68_2034_67)"/>
<mask id="path-138-inside-69_2034_67" fill="white">
<path d="M913.5 1440H1107V1633.5H913.5V1440Z"/>
</mask>
<path d="M913.5 1440H1107V1633.5H913.5V1440Z" fill="black" fill-opacity="0.3"/>
<path d="M913.5 1633.5H911.888V1635.11H913.5V1633.5ZM1107 1633.5V1631.89H913.5V1633.5V1635.11H1107V1633.5ZM913.5 1633.5H915.112V1440H913.5H911.888V1633.5H913.5Z" fill="black" mask="url(#path-138-inside-69_2034_67)"/>
<mask id="path-140-inside-70_2034_67" fill="white">
<path d="M1107 1440H1300.5V1633.5H1107V1440Z"/>
</mask>
<path d="M1107 1633.5H1105.39V1635.11H1107V1633.5ZM1300.5 1633.5V1631.89H1107V1633.5V1635.11H1300.5V1633.5ZM1107 1633.5H1108.61V1440H1107H1105.39V1633.5H1107Z" fill="black" mask="url(#path-140-inside-70_2034_67)"/>
<mask id="path-142-inside-71_2034_67" fill="white">
<path d="M1300.5 1440H1494V1633.5H1300.5V1440Z"/>
</mask>
<path d="M1300.5 1633.5H1298.89V1635.11H1300.5V1633.5ZM1494 1633.5V1631.89H1300.5V1633.5V1635.11H1494V1633.5ZM1300.5 1633.5H1302.11V1440H1300.5H1298.89V1633.5H1300.5Z" fill="black" mask="url(#path-142-inside-71_2034_67)"/>
<mask id="path-144-inside-72_2034_67" fill="white">
<path d="M-54 1633.5H139.5V1827H-54V1633.5Z"/>
</mask>
<path d="M139.5 1827V1825.39H-54V1827V1828.61H139.5V1827Z" fill="black" mask="url(#path-144-inside-72_2034_67)"/>
<mask id="path-146-inside-73_2034_67" fill="white">
<path d="M139.5 1633.5H333V1827H139.5V1633.5Z"/>
</mask>
<path d="M139.5 1827H137.888V1828.61H139.5V1827ZM333 1827V1825.39H139.5V1827V1828.61H333V1827ZM139.5 1827H141.112V1633.5H139.5H137.888V1827H139.5Z" fill="black" mask="url(#path-146-inside-73_2034_67)"/>
<mask id="path-148-inside-74_2034_67" fill="white">
<path d="M333 1633.5H526.5V1827H333V1633.5Z"/>
</mask>
<path d="M333 1633.5H526.5V1827H333V1633.5Z" fill="black" fill-opacity="0.3"/>
<path d="M333 1827H331.388V1828.61H333V1827ZM526.5 1827V1825.39H333V1827V1828.61H526.5V1827ZM333 1827H334.612V1633.5H333H331.388V1827H333Z" fill="black" mask="url(#path-148-inside-74_2034_67)"/>
<mask id="path-150-inside-75_2034_67" fill="white">
<path d="M526.5 1633.5H720V1827H526.5V1633.5Z"/>
</mask>
<path d="M526.5 1827H524.888V1828.61H526.5V1827ZM720 1827V1825.39H526.5V1827V1828.61H720V1827ZM526.5 1827H528.112V1633.5H526.5H524.888V1827H526.5Z" fill="black" mask="url(#path-150-inside-75_2034_67)"/>
<mask id="path-152-inside-76_2034_67" fill="white">
<path d="M720 1633.5H913.5V1827H720V1633.5Z"/>
</mask>
<path d="M720 1827H718.388V1828.61H720V1827ZM913.5 1827V1825.39H720V1827V1828.61H913.5V1827ZM720 1827H721.612V1633.5H720H718.388V1827H720Z" fill="black" mask="url(#path-152-inside-76_2034_67)"/>
<mask id="path-154-inside-77_2034_67" fill="white">
<path d="M913.5 1633.5H1107V1827H913.5V1633.5Z"/>
</mask>
<path d="M913.5 1827H911.888V1828.61H913.5V1827ZM1107 1827V1825.39H913.5V1827V1828.61H1107V1827ZM913.5 1827H915.112V1633.5H913.5H911.888V1827H913.5Z" fill="black" mask="url(#path-154-inside-77_2034_67)"/>
<mask id="path-156-inside-78_2034_67" fill="white">
<path d="M1107 1633.5H1300.5V1827H1107V1633.5Z"/>
</mask>
<path d="M1107 1827H1105.39V1828.61H1107V1827ZM1300.5 1827V1825.39H1107V1827V1828.61H1300.5V1827ZM1107 1827H1108.61V1633.5H1107H1105.39V1827H1107Z" fill="black" mask="url(#path-156-inside-78_2034_67)"/>
<mask id="path-158-inside-79_2034_67" fill="white">
<path d="M1300.5 1633.5H1494V1827H1300.5V1633.5Z"/>
</mask>
<path d="M1300.5 1827H1298.89V1828.61H1300.5V1827ZM1494 1827V1825.39H1300.5V1827V1828.61H1494V1827ZM1300.5 1827H1302.11V1633.5H1300.5H1298.89V1827H1300.5Z" fill="black" mask="url(#path-158-inside-79_2034_67)"/>
<mask id="path-160-inside-80_2034_67" fill="white">
<path d="M-54 1827H139.5V2020.5H-54V1827Z"/>
</mask>
<path d="M139.5 2020.5V2018.89H-54V2020.5V2022.11H139.5V2020.5Z" fill="black" mask="url(#path-160-inside-80_2034_67)"/>
<mask id="path-162-inside-81_2034_67" fill="white">
<path d="M139.5 1827H333V2020.5H139.5V1827Z"/>
</mask>
<path d="M139.5 2020.5H137.888V2022.11H139.5V2020.5ZM333 2020.5V2018.89H139.5V2020.5V2022.11H333V2020.5ZM139.5 2020.5H141.112V1827H139.5H137.888V2020.5H139.5Z" fill="black" mask="url(#path-162-inside-81_2034_67)"/>
<mask id="path-164-inside-82_2034_67" fill="white">
<path d="M333 1827H526.5V2020.5H333V1827Z"/>
</mask>
<path d="M333 2020.5H331.388V2022.11H333V2020.5ZM526.5 2020.5V2018.89H333V2020.5V2022.11H526.5V2020.5ZM333 2020.5H334.612V1827H333H331.388V2020.5H333Z" fill="black" mask="url(#path-164-inside-82_2034_67)"/>
<mask id="path-166-inside-83_2034_67" fill="white">
<path d="M526.5 1827H720V2020.5H526.5V1827Z"/>
</mask>
<path d="M526.5 2020.5H524.888V2022.11H526.5V2020.5ZM720 2020.5V2018.89H526.5V2020.5V2022.11H720V2020.5ZM526.5 2020.5H528.112V1827H526.5H524.888V2020.5H526.5Z" fill="black" mask="url(#path-166-inside-83_2034_67)"/>
<mask id="path-168-inside-84_2034_67" fill="white">
<path d="M720 1827H913.5V2020.5H720V1827Z"/>
</mask>
<path d="M720 2020.5H718.388V2022.11H720V2020.5ZM913.5 2020.5V2018.89H720V2020.5V2022.11H913.5V2020.5ZM720 2020.5H721.612V1827H720H718.388V2020.5H720Z" fill="black" mask="url(#path-168-inside-84_2034_67)"/>
<mask id="path-170-inside-85_2034_67" fill="white">
<path d="M913.5 1827H1107V2020.5H913.5V1827Z"/>
</mask>
<path d="M913.5 1827H1107V2020.5H913.5V1827Z" fill="black" fill-opacity="0.3"/>
<path d="M913.5 2020.5H911.888V2022.11H913.5V2020.5ZM1107 2020.5V2018.89H913.5V2020.5V2022.11H1107V2020.5ZM913.5 2020.5H915.112V1827H913.5H911.888V2020.5H913.5Z" fill="black" mask="url(#path-170-inside-85_2034_67)"/>
<mask id="path-172-inside-86_2034_67" fill="white">
<path d="M1107 1827H1300.5V2020.5H1107V1827Z"/>
</mask>
<path d="M1107 2020.5H1105.39V2022.11H1107V2020.5ZM1300.5 2020.5V2018.89H1107V2020.5V2022.11H1300.5V2020.5ZM1107 2020.5H1108.61V1827H1107H1105.39V2020.5H1107Z" fill="black" mask="url(#path-172-inside-86_2034_67)"/>
<mask id="path-174-inside-87_2034_67" fill="white">
<path d="M1300.5 1827H1494V2020.5H1300.5V1827Z"/>
</mask>
<path d="M1300.5 2020.5H1298.89V2022.11H1300.5V2020.5ZM1494 2020.5V2018.89H1300.5V2020.5V2022.11H1494V2020.5ZM1300.5 2020.5H1302.11V1827H1300.5H1298.89V2020.5H1300.5Z" fill="black" mask="url(#path-174-inside-87_2034_67)"/>
<mask id="path-176-inside-88_2034_67" fill="white">
<path d="M-54 2020.5H139.5V2214H-54V2020.5Z"/>
</mask>
<path d="M-54 2020.5H139.5V2214H-54V2020.5Z" fill="black" fill-opacity="0.3"/>
<path d="M139.5 2214V2212.39H-54V2214V2215.61H139.5V2214Z" fill="black" mask="url(#path-176-inside-88_2034_67)"/>
<mask id="path-178-inside-89_2034_67" fill="white">
<path d="M139.5 2020.5H333V2214H139.5V2020.5Z"/>
</mask>
<path d="M139.5 2214H137.888V2215.61H139.5V2214ZM333 2214V2212.39H139.5V2214V2215.61H333V2214ZM139.5 2214H141.112V2020.5H139.5H137.888V2214H139.5Z" fill="black" mask="url(#path-178-inside-89_2034_67)"/>
<mask id="path-180-inside-90_2034_67" fill="white">
<path d="M333 2020.5H526.5V2214H333V2020.5Z"/>
</mask>
<path d="M333 2214H331.388V2215.61H333V2214ZM526.5 2214V2212.39H333V2214V2215.61H526.5V2214ZM333 2214H334.612V2020.5H333H331.388V2214H333Z" fill="black" mask="url(#path-180-inside-90_2034_67)"/>
<mask id="path-182-inside-91_2034_67" fill="white">
<path d="M526.5 2020.5H720V2214H526.5V2020.5Z"/>
</mask>
<path d="M526.5 2020.5H720V2214H526.5V2020.5Z" fill="black" fill-opacity="0.3"/>
<path d="M526.5 2214H524.888V2215.61H526.5V2214ZM720 2214V2212.39H526.5V2214V2215.61H720V2214ZM526.5 2214H528.112V2020.5H526.5H524.888V2214H526.5Z" fill="black" mask="url(#path-182-inside-91_2034_67)"/>
<mask id="path-184-inside-92_2034_67" fill="white">
<path d="M720 2020.5H913.5V2214H720V2020.5Z"/>
</mask>
<path d="M720 2214H718.388V2215.61H720V2214ZM913.5 2214V2212.39H720V2214V2215.61H913.5V2214ZM720 2214H721.612V2020.5H720H718.388V2214H720Z" fill="black" mask="url(#path-184-inside-92_2034_67)"/>
<mask id="path-186-inside-93_2034_67" fill="white">
<path d="M913.5 2020.5H1107V2214H913.5V2020.5Z"/>
</mask>
<path d="M913.5 2214H911.888V2215.61H913.5V2214ZM1107 2214V2212.39H913.5V2214V2215.61H1107V2214ZM913.5 2214H915.112V2020.5H913.5H911.888V2214H913.5Z" fill="black" mask="url(#path-186-inside-93_2034_67)"/>
<mask id="path-188-inside-94_2034_67" fill="white">
<path d="M1107 2020.5H1300.5V2214H1107V2020.5Z"/>
</mask>
<path d="M1107 2214H1105.39V2215.61H1107V2214ZM1300.5 2214V2212.39H1107V2214V2215.61H1300.5V2214ZM1107 2214H1108.61V2020.5H1107H1105.39V2214H1107Z" fill="black" mask="url(#path-188-inside-94_2034_67)"/>
<mask id="path-190-inside-95_2034_67" fill="white">
<path d="M1300.5 2020.5H1494V2214H1300.5V2020.5Z"/>
</mask>
<path d="M1300.5 2214H1298.89V2215.61H1300.5V2214ZM1494 2214V2212.39H1300.5V2214V2215.61H1494V2214ZM1300.5 2214H1302.11V2020.5H1300.5H1298.89V2214H1300.5Z" fill="black" mask="url(#path-190-inside-95_2034_67)"/>
<mask id="path-192-inside-96_2034_67" fill="white">
<path d="M-54 2214H139.5V2407.5H-54V2214Z"/>
</mask>
<path d="M139.5 2407.5V2405.89H-54V2407.5V2409.11H139.5V2407.5Z" fill="black" mask="url(#path-192-inside-96_2034_67)"/>
<mask id="path-194-inside-97_2034_67" fill="white">
<path d="M139.5 2214H333V2407.5H139.5V2214Z"/>
</mask>
<path d="M139.5 2214H333V2407.5H139.5V2214Z" fill="black" fill-opacity="0.3"/>
<path d="M139.5 2407.5H137.888V2409.11H139.5V2407.5ZM333 2407.5V2405.89H139.5V2407.5V2409.11H333V2407.5ZM139.5 2407.5H141.112V2214H139.5H137.888V2407.5H139.5Z" fill="black" mask="url(#path-194-inside-97_2034_67)"/>
<mask id="path-196-inside-98_2034_67" fill="white">
<path d="M333 2214H526.5V2407.5H333V2214Z"/>
</mask>
<path d="M333 2407.5H331.388V2409.11H333V2407.5ZM526.5 2407.5V2405.89H333V2407.5V2409.11H526.5V2407.5ZM333 2407.5H334.612V2214H333H331.388V2407.5H333Z" fill="black" mask="url(#path-196-inside-98_2034_67)"/>
<mask id="path-198-inside-99_2034_67" fill="white">
<path d="M526.5 2214H720V2407.5H526.5V2214Z"/>
</mask>
<path d="M526.5 2407.5H524.888V2409.11H526.5V2407.5ZM720 2407.5V2405.89H526.5V2407.5V2409.11H720V2407.5ZM526.5 2407.5H528.112V2214H526.5H524.888V2407.5H526.5Z" fill="black" mask="url(#path-198-inside-99_2034_67)"/>
<mask id="path-200-inside-100_2034_67" fill="white">
<path d="M720 2214H913.5V2407.5H720V2214Z"/>
</mask>
<path d="M720 2407.5H718.388V2409.11H720V2407.5ZM913.5 2407.5V2405.89H720V2407.5V2409.11H913.5V2407.5ZM720 2407.5H721.612V2214H720H718.388V2407.5H720Z" fill="black" mask="url(#path-200-inside-100_2034_67)"/>
<mask id="path-202-inside-101_2034_67" fill="white">
<path d="M913.5 2214H1107V2407.5H913.5V2214Z"/>
</mask>
<path d="M913.5 2407.5H911.888V2409.11H913.5V2407.5ZM1107 2407.5V2405.89H913.5V2407.5V2409.11H1107V2407.5ZM913.5 2407.5H915.112V2214H913.5H911.888V2407.5H913.5Z" fill="black" mask="url(#path-202-inside-101_2034_67)"/>
<mask id="path-204-inside-102_2034_67" fill="white">
<path d="M1107 2214H1300.5V2407.5H1107V2214Z"/>
</mask>
<path d="M1107 2214H1300.5V2407.5H1107V2214Z" fill="black" fill-opacity="0.3"/>
<path d="M1107 2407.5H1105.39V2409.11H1107V2407.5ZM1300.5 2407.5V2405.89H1107V2407.5V2409.11H1300.5V2407.5ZM1107 2407.5H1108.61V2214H1107H1105.39V2407.5H1107Z" fill="black" mask="url(#path-204-inside-102_2034_67)"/>
<mask id="path-206-inside-103_2034_67" fill="white">
<path d="M1300.5 2214H1494V2407.5H1300.5V2214Z"/>
</mask>
<path d="M1300.5 2407.5H1298.89V2409.11H1300.5V2407.5ZM1494 2407.5V2405.89H1300.5V2407.5V2409.11H1494V2407.5ZM1300.5 2407.5H1302.11V2214H1300.5H1298.89V2407.5H1300.5Z" fill="black" mask="url(#path-206-inside-103_2034_67)"/>
<mask id="path-208-inside-104_2034_67" fill="white">
<path d="M-54 2407.5H139.5V2601H-54V2407.5Z"/>
</mask>
<path d="M139.5 2601V2599.39H-54V2601V2602.61H139.5V2601Z" fill="black" mask="url(#path-208-inside-104_2034_67)"/>
<mask id="path-210-inside-105_2034_67" fill="white">
<path d="M139.5 2407.5H333V2601H139.5V2407.5Z"/>
</mask>
<path d="M139.5 2601H137.888V2602.61H139.5V2601ZM333 2601V2599.39H139.5V2601V2602.61H333V2601ZM139.5 2601H141.112V2407.5H139.5H137.888V2601H139.5Z" fill="black" mask="url(#path-210-inside-105_2034_67)"/>
<mask id="path-212-inside-106_2034_67" fill="white">
<path d="M333 2407.5H526.5V2601H333V2407.5Z"/>
</mask>
<path d="M333 2601H331.388V2602.61H333V2601ZM526.5 2601V2599.39H333V2601V2602.61H526.5V2601ZM333 2601H334.612V2407.5H333H331.388V2601H333Z" fill="black" mask="url(#path-212-inside-106_2034_67)"/>
<mask id="path-214-inside-107_2034_67" fill="white">
<path d="M526.5 2407.5H720V2601H526.5V2407.5Z"/>
</mask>
<path d="M526.5 2601H524.888V2602.61H526.5V2601ZM720 2601V2599.39H526.5V2601V2602.61H720V2601ZM526.5 2601H528.112V2407.5H526.5H524.888V2601H526.5Z" fill="black" mask="url(#path-214-inside-107_2034_67)"/>
<mask id="path-216-inside-108_2034_67" fill="white">
<path d="M720 2407.5H913.5V2601H720V2407.5Z"/>
</mask>
<path d="M720 2407.5H913.5V2601H720V2407.5Z" fill="black" fill-opacity="0.3"/>
<path d="M720 2601H718.388V2602.61H720V2601ZM913.5 2601V2599.39H720V2601V2602.61H913.5V2601ZM720 2601H721.612V2407.5H720H718.388V2601H720Z" fill="black" mask="url(#path-216-inside-108_2034_67)"/>
<mask id="path-218-inside-109_2034_67" fill="white">
<path d="M913.5 2407.5H1107V2601H913.5V2407.5Z"/>
</mask>
<path d="M913.5 2601H911.888V2602.61H913.5V2601ZM1107 2601V2599.39H913.5V2601V2602.61H1107V2601ZM913.5 2601H915.112V2407.5H913.5H911.888V2601H913.5Z" fill="black" mask="url(#path-218-inside-109_2034_67)"/>
<mask id="path-220-inside-110_2034_67" fill="white">
<path d="M1107 2407.5H1300.5V2601H1107V2407.5Z"/>
</mask>
<path d="M1107 2601H1105.39V2602.61H1107V2601ZM1300.5 2601V2599.39H1107V2601V2602.61H1300.5V2601ZM1107 2601H1108.61V2407.5H1107H1105.39V2601H1107Z" fill="black" mask="url(#path-220-inside-110_2034_67)"/>
<mask id="path-222-inside-111_2034_67" fill="white">
<path d="M1300.5 2407.5H1494V2601H1300.5V2407.5Z"/>
</mask>
<path d="M1300.5 2601H1298.89V2602.61H1300.5V2601ZM1494 2601V2599.39H1300.5V2601V2602.61H1494V2601ZM1300.5 2601H1302.11V2407.5H1300.5H1298.89V2601H1300.5Z" fill="black" mask="url(#path-222-inside-111_2034_67)"/>
<mask id="path-224-inside-112_2034_67" fill="white">
<path d="M-54 2601H139.5V2794.5H-54V2601Z"/>
</mask>
<path d="M139.5 2794.5V2792.89H-54V2794.5V2796.11H139.5V2794.5Z" fill="black" mask="url(#path-224-inside-112_2034_67)"/>
<mask id="path-226-inside-113_2034_67" fill="white">
<path d="M139.5 2601H333V2794.5H139.5V2601Z"/>
</mask>
<path d="M139.5 2794.5H137.888V2796.11H139.5V2794.5ZM333 2794.5V2792.89H139.5V2794.5V2796.11H333V2794.5ZM139.5 2794.5H141.112V2601H139.5H137.888V2794.5H139.5Z" fill="black" mask="url(#path-226-inside-113_2034_67)"/>
<mask id="path-228-inside-114_2034_67" fill="white">
<path d="M333 2601H526.5V2794.5H333V2601Z"/>
</mask>
<path d="M333 2794.5H331.388V2796.11H333V2794.5ZM526.5 2794.5V2792.89H333V2794.5V2796.11H526.5V2794.5ZM333 2794.5H334.612V2601H333H331.388V2794.5H333Z" fill="black" mask="url(#path-228-inside-114_2034_67)"/>
<mask id="path-230-inside-115_2034_67" fill="white">
<path d="M526.5 2601H720V2794.5H526.5V2601Z"/>
</mask>
<path d="M526.5 2601H720V2794.5H526.5V2601Z" fill="black" fill-opacity="0.3"/>
<path d="M526.5 2794.5H524.888V2796.11H526.5V2794.5ZM720 2794.5V2792.89H526.5V2794.5V2796.11H720V2794.5ZM526.5 2794.5H528.112V2601H526.5H524.888V2794.5H526.5Z" fill="black" mask="url(#path-230-inside-115_2034_67)"/>
<mask id="path-232-inside-116_2034_67" fill="white">
<path d="M720 2601H913.5V2794.5H720V2601Z"/>
</mask>
<path d="M720 2794.5H718.388V2796.11H720V2794.5ZM913.5 2794.5V2792.89H720V2794.5V2796.11H913.5V2794.5ZM720 2794.5H721.612V2601H720H718.388V2794.5H720Z" fill="black" mask="url(#path-232-inside-116_2034_67)"/>
<mask id="path-234-inside-117_2034_67" fill="white">
<path d="M913.5 2601H1107V2794.5H913.5V2601Z"/>
</mask>
<path d="M913.5 2794.5H911.888V2796.11H913.5V2794.5ZM1107 2794.5V2792.89H913.5V2794.5V2796.11H1107V2794.5ZM913.5 2794.5H915.112V2601H913.5H911.888V2794.5H913.5Z" fill="black" mask="url(#path-234-inside-117_2034_67)"/>
<mask id="path-236-inside-118_2034_67" fill="white">
<path d="M1107 2601H1300.5V2794.5H1107V2601Z"/>
</mask>
<path d="M1107 2794.5H1105.39V2796.11H1107V2794.5ZM1300.5 2794.5V2792.89H1107V2794.5V2796.11H1300.5V2794.5ZM1107 2794.5H1108.61V2601H1107H1105.39V2794.5H1107Z" fill="black" mask="url(#path-236-inside-118_2034_67)"/>
<mask id="path-238-inside-119_2034_67" fill="white">
<path d="M1300.5 2601H1494V2794.5H1300.5V2601Z"/>
</mask>
<path d="M1300.5 2794.5H1298.89V2796.11H1300.5V2794.5ZM1494 2794.5V2792.89H1300.5V2794.5V2796.11H1494V2794.5ZM1300.5 2794.5H1302.11V2601H1300.5H1298.89V2794.5H1300.5Z" fill="black" mask="url(#path-238-inside-119_2034_67)"/>
<mask id="path-240-inside-120_2034_67" fill="white">
<path d="M-54 2794.5H139.5V2988H-54V2794.5Z"/>
</mask>
<path d="M-54 2988H-52.3875V2794.5H-54H-55.6125V2988H-54Z" fill="black" mask="url(#path-240-inside-120_2034_67)"/>
<mask id="path-242-inside-121_2034_67" fill="white">
<path d="M139.5 2794.5H333V2988H139.5V2794.5Z"/>
</mask>
<path d="M139.5 2988H141.112V2794.5H139.5H137.888V2988H139.5Z" fill="black" mask="url(#path-242-inside-121_2034_67)"/>
<mask id="path-244-inside-122_2034_67" fill="white">
<path d="M333 2794.5H526.5V2988H333V2794.5Z"/>
</mask>
<path d="M333 2988H334.612V2794.5H333H331.388V2988H333Z" fill="black" mask="url(#path-244-inside-122_2034_67)"/>
<mask id="path-246-inside-123_2034_67" fill="white">
<path d="M526.5 2794.5H720V2988H526.5V2794.5Z"/>
</mask>
<path d="M526.5 2988H528.112V2794.5H526.5H524.888V2988H526.5Z" fill="black" mask="url(#path-246-inside-123_2034_67)"/>
<mask id="path-248-inside-124_2034_67" fill="white">
<path d="M720 2794.5H913.5V2988H720V2794.5Z"/>
</mask>
<path d="M720 2988H721.612V2794.5H720H718.388V2988H720Z" fill="black" mask="url(#path-248-inside-124_2034_67)"/>
<mask id="path-250-inside-125_2034_67" fill="white">
<path d="M913.5 2794.5H1107V2988H913.5V2794.5Z"/>
</mask>
<path d="M913.5 2988H915.112V2794.5H913.5H911.888V2988H913.5Z" fill="black" mask="url(#path-250-inside-125_2034_67)"/>
<mask id="path-252-inside-126_2034_67" fill="white">
<path d="M1107 2794.5H1300.5V2988H1107V2794.5Z"/>
</mask>
<path d="M1107 2988H1108.61V2794.5H1107H1105.39V2988H1107Z" fill="black" mask="url(#path-252-inside-126_2034_67)"/>
<g filter="url(#filter1_f_2034_67)">
<circle cx="720" cy="2214" r="1541.55" fill="url(#paint1_radial_2034_67)"/>
</g>
</g>
<g opacity="0.1" clip-path="url(#clip2_2034_67)">
<mask id="path-255-inside-127_2034_67" fill="white">
<path d="M-54 2988H139.5V3181.5H-54V2988Z"/>
</mask>
<path d="M139.5 3181.5V3179.89H-54V3181.5V3183.11H139.5V3181.5Z" fill="black" mask="url(#path-255-inside-127_2034_67)"/>
<mask id="path-257-inside-128_2034_67" fill="white">
<path d="M139.5 2988H333V3181.5H139.5V2988Z"/>
</mask>
<path d="M139.5 3181.5H137.888V3183.11H139.5V3181.5ZM333 3181.5V3179.89H139.5V3181.5V3183.11H333V3181.5ZM139.5 3181.5H141.112V2988H139.5H137.888V3181.5H139.5Z" fill="black" mask="url(#path-257-inside-128_2034_67)"/>
<mask id="path-259-inside-129_2034_67" fill="white">
<path d="M333 2988H526.5V3181.5H333V2988Z"/>
</mask>
<path d="M333 3181.5H331.388V3183.11H333V3181.5ZM526.5 3181.5V3179.89H333V3181.5V3183.11H526.5V3181.5ZM333 3181.5H334.612V2988H333H331.388V3181.5H333Z" fill="black" mask="url(#path-259-inside-129_2034_67)"/>
<mask id="path-261-inside-130_2034_67" fill="white">
<path d="M526.5 2988H720V3181.5H526.5V2988Z"/>
</mask>
<path d="M526.5 3181.5H524.888V3183.11H526.5V3181.5ZM720 3181.5V3179.89H526.5V3181.5V3183.11H720V3181.5ZM526.5 3181.5H528.112V2988H526.5H524.888V3181.5H526.5Z" fill="black" mask="url(#path-261-inside-130_2034_67)"/>
<mask id="path-263-inside-131_2034_67" fill="white">
<path d="M720 2988H913.5V3181.5H720V2988Z"/>
</mask>
<path d="M720 3181.5H718.388V3183.11H720V3181.5ZM913.5 3181.5V3179.89H720V3181.5V3183.11H913.5V3181.5ZM720 3181.5H721.612V2988H720H718.388V3181.5H720Z" fill="black" mask="url(#path-263-inside-131_2034_67)"/>
<mask id="path-265-inside-132_2034_67" fill="white">
<path d="M913.5 2988H1107V3181.5H913.5V2988Z"/>
</mask>
<path d="M913.5 2988H1107V3181.5H913.5V2988Z" fill="black" fill-opacity="0.3"/>
<path d="M913.5 3181.5H911.888V3183.11H913.5V3181.5ZM1107 3181.5V3179.89H913.5V3181.5V3183.11H1107V3181.5ZM913.5 3181.5H915.112V2988H913.5H911.888V3181.5H913.5Z" fill="black" mask="url(#path-265-inside-132_2034_67)"/>
<mask id="path-267-inside-133_2034_67" fill="white">
<path d="M1107 2988H1300.5V3181.5H1107V2988Z"/>
</mask>
<path d="M1107 3181.5H1105.39V3183.11H1107V3181.5ZM1300.5 3181.5V3179.89H1107V3181.5V3183.11H1300.5V3181.5ZM1107 3181.5H1108.61V2988H1107H1105.39V3181.5H1107Z" fill="black" mask="url(#path-267-inside-133_2034_67)"/>
<mask id="path-269-inside-134_2034_67" fill="white">
<path d="M1300.5 2988H1494V3181.5H1300.5V2988Z"/>
</mask>
<path d="M1300.5 3181.5H1298.89V3183.11H1300.5V3181.5ZM1494 3181.5V3179.89H1300.5V3181.5V3183.11H1494V3181.5ZM1300.5 3181.5H1302.11V2988H1300.5H1298.89V3181.5H1300.5Z" fill="black" mask="url(#path-269-inside-134_2034_67)"/>
<mask id="path-271-inside-135_2034_67" fill="white">
<path d="M-54 3181.5H139.5V3375H-54V3181.5Z"/>
</mask>
<path d="M139.5 3375V3373.39H-54V3375V3376.61H139.5V3375Z" fill="black" mask="url(#path-271-inside-135_2034_67)"/>
<mask id="path-273-inside-136_2034_67" fill="white">
<path d="M139.5 3181.5H333V3375H139.5V3181.5Z"/>
</mask>
<path d="M139.5 3375H137.888V3376.61H139.5V3375ZM333 3375V3373.39H139.5V3375V3376.61H333V3375ZM139.5 3375H141.112V3181.5H139.5H137.888V3375H139.5Z" fill="black" mask="url(#path-273-inside-136_2034_67)"/>
<mask id="path-275-inside-137_2034_67" fill="white">
<path d="M333 3181.5H526.5V3375H333V3181.5Z"/>
</mask>
<path d="M333 3181.5H526.5V3375H333V3181.5Z" fill="black" fill-opacity="0.3"/>
<path d="M333 3375H331.388V3376.61H333V3375ZM526.5 3375V3373.39H333V3375V3376.61H526.5V3375ZM333 3375H334.612V3181.5H333H331.388V3375H333Z" fill="black" mask="url(#path-275-inside-137_2034_67)"/>
<mask id="path-277-inside-138_2034_67" fill="white">
<path d="M526.5 3181.5H720V3375H526.5V3181.5Z"/>
</mask>
<path d="M526.5 3375H524.888V3376.61H526.5V3375ZM720 3375V3373.39H526.5V3375V3376.61H720V3375ZM526.5 3375H528.112V3181.5H526.5H524.888V3375H526.5Z" fill="black" mask="url(#path-277-inside-138_2034_67)"/>
<mask id="path-279-inside-139_2034_67" fill="white">
<path d="M720 3181.5H913.5V3375H720V3181.5Z"/>
</mask>
<path d="M720 3375H718.388V3376.61H720V3375ZM913.5 3375V3373.39H720V3375V3376.61H913.5V3375ZM720 3375H721.612V3181.5H720H718.388V3375H720Z" fill="black" mask="url(#path-279-inside-139_2034_67)"/>
<mask id="path-281-inside-140_2034_67" fill="white">
<path d="M913.5 3181.5H1107V3375H913.5V3181.5Z"/>
</mask>
<path d="M913.5 3375H911.888V3376.61H913.5V3375ZM1107 3375V3373.39H913.5V3375V3376.61H1107V3375ZM913.5 3375H915.112V3181.5H913.5H911.888V3375H913.5Z" fill="black" mask="url(#path-281-inside-140_2034_67)"/>
<mask id="path-283-inside-141_2034_67" fill="white">
<path d="M1107 3181.5H1300.5V3375H1107V3181.5Z"/>
</mask>
<path d="M1107 3375H1105.39V3376.61H1107V3375ZM1300.5 3375V3373.39H1107V3375V3376.61H1300.5V3375ZM1107 3375H1108.61V3181.5H1107H1105.39V3375H1107Z" fill="black" mask="url(#path-283-inside-141_2034_67)"/>
<mask id="path-285-inside-142_2034_67" fill="white">
<path d="M1300.5 3181.5H1494V3375H1300.5V3181.5Z"/>
</mask>
<path d="M1300.5 3375H1298.89V3376.61H1300.5V3375ZM1494 3375V3373.39H1300.5V3375V3376.61H1494V3375ZM1300.5 3375H1302.11V3181.5H1300.5H1298.89V3375H1300.5Z" fill="black" mask="url(#path-285-inside-142_2034_67)"/>
<mask id="path-287-inside-143_2034_67" fill="white">
<path d="M-54 3375H139.5V3568.5H-54V3375Z"/>
</mask>
<path d="M139.5 3568.5V3566.89H-54V3568.5V3570.11H139.5V3568.5Z" fill="black" mask="url(#path-287-inside-143_2034_67)"/>
<mask id="path-289-inside-144_2034_67" fill="white">
<path d="M139.5 3375H333V3568.5H139.5V3375Z"/>
</mask>
<path d="M139.5 3568.5H137.888V3570.11H139.5V3568.5ZM333 3568.5V3566.89H139.5V3568.5V3570.11H333V3568.5ZM139.5 3568.5H141.112V3375H139.5H137.888V3568.5H139.5Z" fill="black" mask="url(#path-289-inside-144_2034_67)"/>
<mask id="path-291-inside-145_2034_67" fill="white">
<path d="M333 3375H526.5V3568.5H333V3375Z"/>
</mask>
<path d="M333 3568.5H331.388V3570.11H333V3568.5ZM526.5 3568.5V3566.89H333V3568.5V3570.11H526.5V3568.5ZM333 3568.5H334.612V3375H333H331.388V3568.5H333Z" fill="black" mask="url(#path-291-inside-145_2034_67)"/>
<mask id="path-293-inside-146_2034_67" fill="white">
<path d="M526.5 3375H720V3568.5H526.5V3375Z"/>
</mask>
<path d="M526.5 3568.5H524.888V3570.11H526.5V3568.5ZM720 3568.5V3566.89H526.5V3568.5V3570.11H720V3568.5ZM526.5 3568.5H528.112V3375H526.5H524.888V3568.5H526.5Z" fill="black" mask="url(#path-293-inside-146_2034_67)"/>
<mask id="path-295-inside-147_2034_67" fill="white">
<path d="M720 3375H913.5V3568.5H720V3375Z"/>
</mask>
<path d="M720 3568.5H718.388V3570.11H720V3568.5ZM913.5 3568.5V3566.89H720V3568.5V3570.11H913.5V3568.5ZM720 3568.5H721.612V3375H720H718.388V3568.5H720Z" fill="black" mask="url(#path-295-inside-147_2034_67)"/>
<mask id="path-297-inside-148_2034_67" fill="white">
<path d="M913.5 3375H1107V3568.5H913.5V3375Z"/>
</mask>
<path d="M913.5 3375H1107V3568.5H913.5V3375Z" fill="black" fill-opacity="0.3"/>
<path d="M913.5 3568.5H911.888V3570.11H913.5V3568.5ZM1107 3568.5V3566.89H913.5V3568.5V3570.11H1107V3568.5ZM913.5 3568.5H915.112V3375H913.5H911.888V3568.5H913.5Z" fill="black" mask="url(#path-297-inside-148_2034_67)"/>
<mask id="path-299-inside-149_2034_67" fill="white">
<path d="M1107 3375H1300.5V3568.5H1107V3375Z"/>
</mask>
<path d="M1107 3568.5H1105.39V3570.11H1107V3568.5ZM1300.5 3568.5V3566.89H1107V3568.5V3570.11H1300.5V3568.5ZM1107 3568.5H1108.61V3375H1107H1105.39V3568.5H1107Z" fill="black" mask="url(#path-299-inside-149_2034_67)"/>
<mask id="path-301-inside-150_2034_67" fill="white">
<path d="M1300.5 3375H1494V3568.5H1300.5V3375Z"/>
</mask>
<path d="M1300.5 3568.5H1298.89V3570.11H1300.5V3568.5ZM1494 3568.5V3566.89H1300.5V3568.5V3570.11H1494V3568.5ZM1300.5 3568.5H1302.11V3375H1300.5H1298.89V3568.5H1300.5Z" fill="black" mask="url(#path-301-inside-150_2034_67)"/>
<mask id="path-303-inside-151_2034_67" fill="white">
<path d="M-54 3568.5H139.5V3762H-54V3568.5Z"/>
</mask>
<path d="M-54 3568.5H139.5V3762H-54V3568.5Z" fill="black" fill-opacity="0.3"/>
<path d="M139.5 3762V3760.39H-54V3762V3763.61H139.5V3762Z" fill="black" mask="url(#path-303-inside-151_2034_67)"/>
<mask id="path-305-inside-152_2034_67" fill="white">
<path d="M139.5 3568.5H333V3762H139.5V3568.5Z"/>
</mask>
<path d="M139.5 3762H137.888V3763.61H139.5V3762ZM333 3762V3760.39H139.5V3762V3763.61H333V3762ZM139.5 3762H141.112V3568.5H139.5H137.888V3762H139.5Z" fill="black" mask="url(#path-305-inside-152_2034_67)"/>
<mask id="path-307-inside-153_2034_67" fill="white">
<path d="M333 3568.5H526.5V3762H333V3568.5Z"/>
</mask>
<path d="M333 3762H331.388V3763.61H333V3762ZM526.5 3762V3760.39H333V3762V3763.61H526.5V3762ZM333 3762H334.612V3568.5H333H331.388V3762H333Z" fill="black" mask="url(#path-307-inside-153_2034_67)"/>
<mask id="path-309-inside-154_2034_67" fill="white">
<path d="M526.5 3568.5H720V3762H526.5V3568.5Z"/>
</mask>
<path d="M526.5 3568.5H720V3762H526.5V3568.5Z" fill="black" fill-opacity="0.3"/>
<path d="M526.5 3762H524.888V3763.61H526.5V3762ZM720 3762V3760.39H526.5V3762V3763.61H720V3762ZM526.5 3762H528.112V3568.5H526.5H524.888V3762H526.5Z" fill="black" mask="url(#path-309-inside-154_2034_67)"/>
<mask id="path-311-inside-155_2034_67" fill="white">
<path d="M720 3568.5H913.5V3762H720V3568.5Z"/>
</mask>
<path d="M720 3762H718.388V3763.61H720V3762ZM913.5 3762V3760.39H720V3762V3763.61H913.5V3762ZM720 3762H721.612V3568.5H720H718.388V3762H720Z" fill="black" mask="url(#path-311-inside-155_2034_67)"/>
<mask id="path-313-inside-156_2034_67" fill="white">
<path d="M913.5 3568.5H1107V3762H913.5V3568.5Z"/>
</mask>
<path d="M913.5 3762H911.888V3763.61H913.5V3762ZM1107 3762V3760.39H913.5V3762V3763.61H1107V3762ZM913.5 3762H915.112V3568.5H913.5H911.888V3762H913.5Z" fill="black" mask="url(#path-313-inside-156_2034_67)"/>
<mask id="path-315-inside-157_2034_67" fill="white">
<path d="M1107 3568.5H1300.5V3762H1107V3568.5Z"/>
</mask>
<path d="M1107 3762H1105.39V3763.61H1107V3762ZM1300.5 3762V3760.39H1107V3762V3763.61H1300.5V3762ZM1107 3762H1108.61V3568.5H1107H1105.39V3762H1107Z" fill="black" mask="url(#path-315-inside-157_2034_67)"/>
<mask id="path-317-inside-158_2034_67" fill="white">
<path d="M1300.5 3568.5H1494V3762H1300.5V3568.5Z"/>
</mask>
<path d="M1300.5 3762H1298.89V3763.61H1300.5V3762ZM1494 3762V3760.39H1300.5V3762V3763.61H1494V3762ZM1300.5 3762H1302.11V3568.5H1300.5H1298.89V3762H1300.5Z" fill="black" mask="url(#path-317-inside-158_2034_67)"/>
<mask id="path-319-inside-159_2034_67" fill="white">
<path d="M-54 3762H139.5V3955.5H-54V3762Z"/>
</mask>
<path d="M139.5 3955.5V3953.89H-54V3955.5V3957.11H139.5V3955.5Z" fill="black" mask="url(#path-319-inside-159_2034_67)"/>
<mask id="path-321-inside-160_2034_67" fill="white">
<path d="M139.5 3762H333V3955.5H139.5V3762Z"/>
</mask>
<path d="M139.5 3762H333V3955.5H139.5V3762Z" fill="black" fill-opacity="0.3"/>
<path d="M139.5 3955.5H137.888V3957.11H139.5V3955.5ZM333 3955.5V3953.89H139.5V3955.5V3957.11H333V3955.5ZM139.5 3955.5H141.112V3762H139.5H137.888V3955.5H139.5Z" fill="black" mask="url(#path-321-inside-160_2034_67)"/>
<mask id="path-323-inside-161_2034_67" fill="white">
<path d="M333 3762H526.5V3955.5H333V3762Z"/>
</mask>
<path d="M333 3955.5H331.388V3957.11H333V3955.5ZM526.5 3955.5V3953.89H333V3955.5V3957.11H526.5V3955.5ZM333 3955.5H334.612V3762H333H331.388V3955.5H333Z" fill="black" mask="url(#path-323-inside-161_2034_67)"/>
<mask id="path-325-inside-162_2034_67" fill="white">
<path d="M526.5 3762H720V3955.5H526.5V3762Z"/>
</mask>
<path d="M526.5 3955.5H524.888V3957.11H526.5V3955.5ZM720 3955.5V3953.89H526.5V3955.5V3957.11H720V3955.5ZM526.5 3955.5H528.112V3762H526.5H524.888V3955.5H526.5Z" fill="black" mask="url(#path-325-inside-162_2034_67)"/>
<mask id="path-327-inside-163_2034_67" fill="white">
<path d="M720 3762H913.5V3955.5H720V3762Z"/>
</mask>
<path d="M720 3955.5H718.388V3957.11H720V3955.5ZM913.5 3955.5V3953.89H720V3955.5V3957.11H913.5V3955.5ZM720 3955.5H721.612V3762H720H718.388V3955.5H720Z" fill="black" mask="url(#path-327-inside-163_2034_67)"/>
<mask id="path-329-inside-164_2034_67" fill="white">
<path d="M913.5 3762H1107V3955.5H913.5V3762Z"/>
</mask>
<path d="M913.5 3955.5H911.888V3957.11H913.5V3955.5ZM1107 3955.5V3953.89H913.5V3955.5V3957.11H1107V3955.5ZM913.5 3955.5H915.112V3762H913.5H911.888V3955.5H913.5Z" fill="black" mask="url(#path-329-inside-164_2034_67)"/>
<mask id="path-331-inside-165_2034_67" fill="white">
<path d="M1107 3762H1300.5V3955.5H1107V3762Z"/>
</mask>
<path d="M1107 3762H1300.5V3955.5H1107V3762Z" fill="black" fill-opacity="0.3"/>
<path d="M1107 3955.5H1105.39V3957.11H1107V3955.5ZM1300.5 3955.5V3953.89H1107V3955.5V3957.11H1300.5V3955.5ZM1107 3955.5H1108.61V3762H1107H1105.39V3955.5H1107Z" fill="black" mask="url(#path-331-inside-165_2034_67)"/>
<mask id="path-333-inside-166_2034_67" fill="white">
<path d="M1300.5 3762H1494V3955.5H1300.5V3762Z"/>
</mask>
<path d="M1300.5 3955.5H1298.89V3957.11H1300.5V3955.5ZM1494 3955.5V3953.89H1300.5V3955.5V3957.11H1494V3955.5ZM1300.5 3955.5H1302.11V3762H1300.5H1298.89V3955.5H1300.5Z" fill="black" mask="url(#path-333-inside-166_2034_67)"/>
<g filter="url(#filter2_f_2034_67)">
<circle cx="720" cy="3762" r="1541.55" fill="url(#paint2_radial_2034_67)"/>
</g>
</g>
<g filter="url(#filter3_f_2034_67)">
<path d="M-90 -31.6152L-11.6152 -100L233.955 245.571L235.571 243.955L-90 -31.6152Z" fill="url(#paint3_linear_2034_67)"/>
</g>
<g filter="url(#filter4_f_2034_67)">
<path d="M1530 -31.6152L1461.62 -90L1216.04 255.571L1214.43 253.955L1530 -31.6152Z" fill="url(#paint4_linear_2034_67)"/>
</g>
<defs>
<filter id="filter0_f_2034_67" x="-1164" y="-1164" width="3768" height="3768" filterUnits="userSpaceOnUse" color-interpolation-filters="sRGB">
<feFlood flood-opacity="0" result="BackgroundImageFix"/>
<feBlend mode="normal" in="SourceGraphic" in2="BackgroundImageFix" result="shape"/>
<feGaussianBlur stdDeviation="225" result="effect1_foregroundBlur_2034_67"/>
</filter>
<filter id="filter1_f_2034_67" x="-1305.3" y="188.7" width="4050.6" height="4050.6" filterUnits="userSpaceOnUse" color-interpolation-filters="sRGB">
<feFlood flood-opacity="0" result="BackgroundImageFix"/>
<feBlend mode="normal" in="SourceGraphic" in2="BackgroundImageFix" result="shape"/>
<feGaussianBlur stdDeviation="241.875" result="effect1_foregroundBlur_2034_67"/>
</filter>
<filter id="filter2_f_2034_67" x="-1305.3" y="1736.7" width="4050.6" height="4050.6" filterUnits="userSpaceOnUse" color-interpolation-filters="sRGB">
<feFlood flood-opacity="0" result="BackgroundImageFix"/>
<feBlend mode="normal" in="SourceGraphic" in2="BackgroundImageFix" result="shape"/>
<feGaussianBlur stdDeviation="241.875" result="effect1_foregroundBlur_2034_67"/>
</filter>
<filter id="filter3_f_2034_67" x="-190" y="-200" width="525.571" height="545.571" filterUnits="userSpaceOnUse" color-interpolation-filters="sRGB">
<feFlood flood-opacity="0" result="BackgroundImageFix"/>
<feBlend mode="normal" in="SourceGraphic" in2="BackgroundImageFix" result="shape"/>
<feGaussianBlur stdDeviation="50" result="effect1_foregroundBlur_2034_67"/>
</filter>
<filter id="filter4_f_2034_67" x="1114.43" y="-190" width="515.571" height="545.571" filterUnits="userSpaceOnUse" color-interpolation-filters="sRGB">
<feFlood flood-opacity="0" result="BackgroundImageFix"/>
<feBlend mode="normal" in="SourceGraphic" in2="BackgroundImageFix" result="shape"/>
<feGaussianBlur stdDeviation="50" result="effect1_foregroundBlur_2034_67"/>
</filter>
<radialGradient id="paint0_radial_2034_67" cx="0" cy="0" r="1" gradientUnits="userSpaceOnUse" gradientTransform="translate(720 720) rotate(90) scale(1434)">
<stop stop-color="white" stop-opacity="0"/>
<stop offset="0.46589" stop-color="white"/>
</radialGradient>
<radialGradient id="paint1_radial_2034_67" cx="0" cy="0" r="1" gradientUnits="userSpaceOnUse" gradientTransform="translate(720 2214) rotate(90) scale(1541.55)">
<stop stop-color="white" stop-opacity="0"/>
<stop offset="0.46589" stop-color="white"/>
</radialGradient>
<radialGradient id="paint2_radial_2034_67" cx="0" cy="0" r="1" gradientUnits="userSpaceOnUse" gradientTransform="translate(720 3762) rotate(90) scale(1541.55)">
<stop stop-color="white" stop-opacity="0"/>
<stop offset="0.46589" stop-color="white"/>
</radialGradient>
<linearGradient id="paint3_linear_2034_67" x1="-56.9909" y1="-54.6244" x2="238.58" y2="240.946" gradientUnits="userSpaceOnUse">
<stop stop-color="#C72C18" stop-opacity="0.6"/>
<stop offset="1" stop-color="#C72C18" stop-opacity="0.3"/>
</linearGradient>
<linearGradient id="paint4_linear_2034_67" x1="1500.81" y1="-50.8076" x2="1205.24" y2="244.763" gradientUnits="userSpaceOnUse">
<stop stop-color="#C72C18" stop-opacity="0.6"/>
<stop offset="1" stop-color="#C72C18" stop-opacity="0.3"/>
</linearGradient>
<clipPath id="clip0_2034_67">
<rect width="1440" height="1440" fill="white"/>
</clipPath>
<clipPath id="clip1_2034_67">
<rect width="1548" height="1548" fill="white" transform="translate(-54 1440)"/>
</clipPath>
<clipPath id="clip2_2034_67">
<rect width="1548" height="1548" fill="white" transform="translate(-54 2988)"/>
</clipPath>
</defs>
</svg>
