<svg width="1280" height="48" viewBox="0 0 1280 48" fill="none" xmlns="http://www.w3.org/2000/svg">
<g opacity="0.4">
<rect width="48" height="48" rx="16" fill="#171717"/>
<path d="M21.0588 10.2981C20.9457 10.4792 20.7785 10.7152 20.5481 11.0374C18.0908 14.4734 16.8307 19.1378 16.8235 23.7327C16.8227 24.2198 16.8358 24.709 16.8635 25.1985C16.8757 25.4133 16.8802 25.5621 16.8801 25.6711C16.7884 25.6396 16.6655 25.5936 16.4915 25.5237C14.772 24.8336 13.2086 23.8734 11.8889 22.636L11.8704 22.6194L11.8567 22.6057L10.509 21.4358C10.4658 21.3982 10.4333 21.3691 10.4055 21.344C10.3968 21.3361 10.3897 21.3287 10.3831 21.3225C10.3843 21.3152 10.3853 21.3071 10.387 21.2981C10.3934 21.2628 10.4013 21.2217 10.4124 21.1672C11.4605 16.0055 15.3296 11.8793 20.3225 10.4915C20.642 10.4027 20.8786 10.3378 21.0588 10.2981Z" stroke="white"/>
<path d="M9.741 24.9933C9.71067 24.9671 9.66391 24.9909 9.66675 25.0311C10.1211 31.4711 14.7512 36.7487 20.8457 38.1332C21.7284 38.3337 22.1697 38.434 22.3198 38.1897C22.4701 37.9455 22.1586 37.5612 21.5357 36.7928C19.8943 34.768 18.7668 32.3652 18.0944 29.8277C18.0329 29.5959 18.0022 29.4799 17.927 29.4037C17.8517 29.3275 17.7368 29.2957 17.5069 29.2323C14.6309 28.4387 11.9453 27.0536 9.741 24.9933Z" fill="white"/>
<path d="M37.6937 26.5256C36.6923 32.036 32.4913 36.4187 27.1029 37.6448C27.0548 37.6557 27.0187 37.6637 26.9877 37.6702C26.981 37.6715 26.9746 37.672 26.9691 37.6731C26.9637 37.6684 26.9573 37.6634 26.9506 37.6575C26.9256 37.6354 26.8966 37.6091 26.8588 37.5745L25.2572 36.1086C23.7246 34.7079 22.5661 32.9085 21.7758 30.8811C21.7057 30.7015 21.6602 30.5754 21.6293 30.4817C21.6606 30.482 21.6952 30.4801 21.7338 30.4817L22.0961 30.5022C22.6823 30.5411 23.27 30.5596 23.8568 30.5579C28.7583 30.5437 33.7508 29.1384 37.6937 26.5256Z" stroke="white"/>
<path d="M37.9245 22.4466C38.1154 22.3092 38.2108 22.2404 38.2548 22.1348C38.2986 22.029 38.2808 21.9166 38.2453 21.6916C37.2812 15.5901 32.5382 10.7572 26.5081 9.70247C26.3157 9.66881 26.2196 9.65199 26.125 9.68289C26.0306 9.71381 25.9601 9.78692 25.8193 9.93316L24.3589 11.4488L24.3493 11.4584C21.6292 14.1695 20.0094 18.839 20.0017 23.7374C20.0003 24.6644 20.0566 25.5886 20.1715 26.4988C20.2063 26.7749 20.2238 26.9129 20.3196 27.0101C20.4154 27.1074 20.5524 27.126 20.8265 27.1633C21.8173 27.2981 22.8284 27.3633 23.8474 27.3604C28.5005 27.3469 33.1785 25.9109 36.6318 23.3776L36.6414 23.3706L37.9245 22.4466Z" fill="white"/>
<path d="M65.696 36.5H60.288L68.736 12.82H73.792L82.208 36.5H76.704L75.04 31.508H67.392L65.696 36.5ZM70.592 22.1L68.896 27.156H73.568L71.872 22.1C71.616 21.3 71.328 20.372 71.232 19.796C71.136 20.34 70.88 21.236 70.592 22.1ZM84.356 44.18V20.5H88.996L89.252 22.452C90.148 20.98 92.164 19.988 94.436 19.988C98.884 19.988 101.988 23.092 101.988 28.244C101.988 33.3 99.236 36.948 94.468 36.948C92.26 36.948 90.212 36.116 89.284 34.9V44.18H84.356ZM89.316 28.5C89.316 30.9 90.916 32.5 93.22 32.5C95.556 32.5 97.028 30.868 97.028 28.5C97.028 26.132 95.556 24.5 93.22 24.5C90.916 24.5 89.316 26.1 89.316 28.5ZM109.753 36.5H104.825V12.372H109.753V36.5ZM124.074 20.5H129.002V36.5H124.362L124.042 34.708C123.05 36.02 121.066 36.916 119.146 36.916C115.498 36.916 113.258 34.484 113.258 30.548V20.5H118.186V28.756C118.186 31.38 119.082 32.532 121.098 32.532C123.21 32.532 124.074 31.444 124.074 28.82V20.5ZM136.764 36.5H131.164L136.54 28.756L131.164 20.5H136.86L139.804 25.364L142.556 20.5H148.06L142.78 28.66L147.868 36.5H142.204L139.452 31.892L136.764 36.5ZM158.188 19.604C158.188 15.636 161.388 12.948 166.156 12.948C170.572 12.948 173.42 15.412 173.676 19.412H170.508C170.348 17.108 168.716 15.764 166.124 15.764C163.212 15.764 161.324 17.236 161.324 19.508C161.324 21.364 162.38 22.484 164.556 22.996L168.364 23.892C172.14 24.756 174.06 26.804 174.06 30.068C174.06 34.228 170.828 36.884 165.9 36.884C161.196 36.884 158.06 34.42 157.868 30.452H161.068C161.132 32.66 162.988 34.068 165.9 34.068C168.972 34.068 170.924 32.628 170.924 30.324C170.924 28.5 169.932 27.348 167.724 26.836L163.916 25.972C160.14 25.108 158.188 22.932 158.188 19.604ZM181.905 36.5H178.897V23.38H175.825V20.852H178.897V15.956H181.905V20.852H184.977V23.38H181.905V36.5ZM198.492 20.852H201.468V36.5H198.78L198.46 34.132C197.564 35.764 195.484 36.884 193.18 36.884C189.532 36.884 187.484 34.42 187.484 30.58V20.852H190.492V29.588C190.492 32.948 191.932 34.228 194.236 34.228C196.988 34.228 198.492 32.468 198.492 29.108V20.852ZM211.792 36.884C207.248 36.884 204.496 33.492 204.496 28.724C204.496 23.924 207.28 20.404 211.92 20.404C214.32 20.404 216.336 21.46 217.392 23.38V12.948H220.368V36.5H217.68L217.424 33.652C216.4 35.796 214.288 36.884 211.792 36.884ZM212.4 34.164C215.472 34.164 217.36 31.892 217.36 28.628C217.36 25.428 215.472 23.124 212.4 23.124C209.328 23.124 207.536 25.428 207.536 28.628C207.536 31.86 209.328 34.164 212.4 34.164ZM226.179 17.14C225.091 17.14 224.195 16.244 224.195 15.156C224.195 14.036 225.091 13.172 226.179 13.172C227.267 13.172 228.163 14.036 228.163 15.156C228.163 16.244 227.267 17.14 226.179 17.14ZM224.707 36.5V20.852H227.715V36.5H224.707ZM231.058 28.66C231.058 23.828 234.514 20.436 239.218 20.436C243.89 20.436 247.346 23.828 247.346 28.66C247.346 33.492 243.89 36.884 239.218 36.884C234.514 36.884 231.058 33.492 231.058 28.66ZM234.098 28.66C234.098 31.924 236.178 34.196 239.218 34.196C242.226 34.196 244.338 31.924 244.338 28.66C244.338 25.396 242.226 23.124 239.218 23.124C236.178 23.124 234.098 25.396 234.098 28.66Z" fill="#171717"/>
<rect x="343.667" width="48" height="48" rx="16" fill="#171717"/>
<path d="M364.725 10.2981C364.612 10.4792 364.445 10.7152 364.215 11.0374C361.757 14.4734 360.497 19.1378 360.49 23.7327C360.489 24.2198 360.502 24.709 360.53 25.1985C360.542 25.4133 360.547 25.5621 360.547 25.6711C360.455 25.6396 360.332 25.5936 360.158 25.5237C358.439 24.8336 356.875 23.8734 355.556 22.636L355.537 22.6194L355.523 22.6057L354.176 21.4358C354.132 21.3982 354.1 21.3691 354.072 21.344C354.063 21.3361 354.056 21.3287 354.05 21.3225C354.051 21.3152 354.052 21.3071 354.054 21.2981C354.06 21.2628 354.068 21.2217 354.079 21.1672C355.127 16.0055 358.996 11.8793 363.989 10.4915C364.309 10.4027 364.545 10.3378 364.725 10.2981Z" stroke="white"/>
<path d="M353.408 24.9933C353.377 24.9671 353.331 24.9909 353.333 25.0311C353.788 31.4711 358.418 36.7487 364.512 38.1332C365.395 38.3337 365.836 38.434 365.986 38.1897C366.137 37.9455 365.825 37.5612 365.202 36.7928C363.561 34.768 362.433 32.3652 361.761 29.8277C361.7 29.5959 361.669 29.4799 361.594 29.4037C361.518 29.3275 361.403 29.2957 361.174 29.2323C358.298 28.4387 355.612 27.0536 353.408 24.9933Z" fill="white"/>
<path d="M381.36 26.5256C380.359 32.036 376.158 36.4187 370.77 37.6448C370.721 37.6557 370.685 37.6637 370.654 37.6702C370.648 37.6715 370.641 37.672 370.636 37.6731C370.63 37.6684 370.624 37.6634 370.617 37.6575C370.592 37.6354 370.563 37.6091 370.525 37.5745L368.924 36.1086C367.391 34.7079 366.233 32.9085 365.442 30.8811C365.372 30.7015 365.327 30.5754 365.296 30.4817C365.327 30.482 365.362 30.4801 365.4 30.4817L365.763 30.5022C366.349 30.5411 366.937 30.5596 367.523 30.5579C372.425 30.5437 377.417 29.1384 381.36 26.5256Z" stroke="white"/>
<path d="M381.591 22.4466C381.782 22.3092 381.877 22.2404 381.921 22.1348C381.965 22.029 381.947 21.9166 381.912 21.6916C380.948 15.5901 376.205 10.7572 370.175 9.70247C369.982 9.66881 369.886 9.65199 369.792 9.68289C369.697 9.71381 369.627 9.78692 369.486 9.93316L368.026 11.4488L368.016 11.4584C365.296 14.1695 363.676 18.839 363.668 23.7374C363.667 24.6644 363.723 25.5886 363.838 26.4988C363.873 26.7749 363.89 26.9129 363.986 27.0101C364.082 27.1074 364.219 27.126 364.493 27.1633C365.484 27.2981 366.495 27.3633 367.514 27.3604C372.167 27.3469 376.845 25.9109 380.298 23.3776L380.308 23.3706L381.591 22.4466Z" fill="white"/>
<path d="M409.363 36.5H403.955L412.403 12.82H417.459L425.875 36.5H420.371L418.707 31.508H411.059L409.363 36.5ZM414.259 22.1L412.563 27.156H417.235L415.539 22.1C415.283 21.3 414.995 20.372 414.899 19.796C414.803 20.34 414.547 21.236 414.259 22.1ZM428.023 44.18V20.5H432.663L432.919 22.452C433.815 20.98 435.831 19.988 438.103 19.988C442.551 19.988 445.655 23.092 445.655 28.244C445.655 33.3 442.903 36.948 438.135 36.948C435.927 36.948 433.879 36.116 432.951 34.9V44.18H428.023ZM432.983 28.5C432.983 30.9 434.583 32.5 436.887 32.5C439.223 32.5 440.695 30.868 440.695 28.5C440.695 26.132 439.223 24.5 436.887 24.5C434.583 24.5 432.983 26.1 432.983 28.5ZM453.419 36.5H448.491V12.372H453.419V36.5ZM467.74 20.5H472.668V36.5H468.028L467.708 34.708C466.716 36.02 464.732 36.916 462.812 36.916C459.164 36.916 456.924 34.484 456.924 30.548V20.5H461.852V28.756C461.852 31.38 462.748 32.532 464.764 32.532C466.876 32.532 467.74 31.444 467.74 28.82V20.5ZM480.43 36.5H474.83L480.206 28.756L474.83 20.5H480.526L483.47 25.364L486.222 20.5H491.726L486.446 28.66L491.534 36.5H485.87L483.118 31.892L480.43 36.5ZM501.854 19.604C501.854 15.636 505.054 12.948 509.822 12.948C514.238 12.948 517.086 15.412 517.342 19.412H514.174C514.014 17.108 512.382 15.764 509.79 15.764C506.878 15.764 504.99 17.236 504.99 19.508C504.99 21.364 506.046 22.484 508.222 22.996L512.03 23.892C515.806 24.756 517.726 26.804 517.726 30.068C517.726 34.228 514.494 36.884 509.566 36.884C504.862 36.884 501.726 34.42 501.534 30.452H504.734C504.798 32.66 506.654 34.068 509.566 34.068C512.638 34.068 514.59 32.628 514.59 30.324C514.59 28.5 513.598 27.348 511.39 26.836L507.582 25.972C503.806 25.108 501.854 22.932 501.854 19.604ZM525.571 36.5H522.563V23.38H519.491V20.852H522.563V15.956H525.571V20.852H528.643V23.38H525.571V36.5ZM542.159 20.852H545.135V36.5H542.447L542.127 34.132C541.231 35.764 539.151 36.884 536.847 36.884C533.199 36.884 531.151 34.42 531.151 30.58V20.852H534.159V29.588C534.159 32.948 535.599 34.228 537.903 34.228C540.655 34.228 542.159 32.468 542.159 29.108V20.852ZM555.458 36.884C550.914 36.884 548.162 33.492 548.162 28.724C548.162 23.924 550.946 20.404 555.586 20.404C557.986 20.404 560.002 21.46 561.058 23.38V12.948H564.034V36.5H561.346L561.09 33.652C560.066 35.796 557.954 36.884 555.458 36.884ZM556.066 34.164C559.138 34.164 561.026 31.892 561.026 28.628C561.026 25.428 559.138 23.124 556.066 23.124C552.994 23.124 551.202 25.428 551.202 28.628C551.202 31.86 552.994 34.164 556.066 34.164ZM569.846 17.14C568.758 17.14 567.862 16.244 567.862 15.156C567.862 14.036 568.758 13.172 569.846 13.172C570.934 13.172 571.83 14.036 571.83 15.156C571.83 16.244 570.934 17.14 569.846 17.14ZM568.374 36.5V20.852H571.382V36.5H568.374ZM574.725 28.66C574.725 23.828 578.181 20.436 582.885 20.436C587.557 20.436 591.013 23.828 591.013 28.66C591.013 33.492 587.557 36.884 582.885 36.884C578.181 36.884 574.725 33.492 574.725 28.66ZM577.765 28.66C577.765 31.924 579.845 34.196 582.885 34.196C585.893 34.196 588.005 31.924 588.005 28.66C588.005 25.396 585.893 23.124 582.885 23.124C579.845 23.124 577.765 25.396 577.765 28.66Z" fill="#171717"/>
<rect x="687.333" width="48" height="48" rx="16" fill="#171717"/>
<path d="M708.392 10.2981C708.279 10.4792 708.112 10.7152 707.881 11.0374C705.424 14.4734 704.164 19.1378 704.157 23.7327C704.156 24.2198 704.169 24.709 704.197 25.1985C704.209 25.4133 704.213 25.5621 704.213 25.6711C704.122 25.6396 703.999 25.5936 703.825 25.5237C702.105 24.8336 700.542 23.8734 699.222 22.636L699.204 22.6194L699.19 22.6057L697.842 21.4358C697.799 21.3982 697.767 21.3691 697.739 21.344C697.73 21.3361 697.723 21.3287 697.716 21.3225C697.718 21.3152 697.719 21.3071 697.72 21.2981C697.727 21.2628 697.735 21.2217 697.746 21.1672C698.794 16.0055 702.663 11.8793 707.656 10.4915C707.975 10.4027 708.212 10.3378 708.392 10.2981Z" stroke="white"/>
<path d="M697.074 24.9933C697.044 24.9671 696.997 24.9909 697 25.0311C697.455 31.4711 702.085 36.7487 708.179 38.1332C709.062 38.3337 709.503 38.434 709.653 38.1897C709.803 37.9455 709.492 37.5612 708.869 36.7928C707.228 34.768 706.1 32.3652 705.428 29.8277C705.366 29.5959 705.336 29.4799 705.26 29.4037C705.185 29.3275 705.07 29.2957 704.84 29.2323C701.964 28.4387 699.279 27.0536 697.074 24.9933Z" fill="white"/>
<path d="M725.027 26.5256C724.026 32.036 719.825 36.4187 714.436 37.6448C714.388 37.6557 714.352 37.6637 714.321 37.6702C714.314 37.6715 714.308 37.672 714.302 37.6731C714.297 37.6684 714.291 37.6634 714.284 37.6575C714.259 37.6354 714.23 37.6091 714.192 37.5745L712.591 36.1086C711.058 34.7079 709.899 32.9085 709.109 30.8811C709.039 30.7015 708.994 30.5754 708.963 30.4817C708.994 30.482 709.029 30.4801 709.067 30.4817L709.429 30.5022C710.016 30.5411 710.603 30.5596 711.19 30.5579C716.092 30.5437 721.084 29.1384 725.027 26.5256Z" stroke="white"/>
<path d="M725.258 22.4466C725.449 22.3092 725.544 22.2404 725.588 22.1348C725.632 22.029 725.614 21.9166 725.579 21.6916C724.614 15.5901 719.871 10.7572 713.841 9.70247C713.649 9.66881 713.553 9.65199 713.458 9.68289C713.364 9.71381 713.293 9.78692 713.153 9.93316L711.692 11.4488L711.683 11.4584C708.962 14.1695 707.343 18.839 707.335 23.7374C707.334 24.6644 707.39 25.5886 707.505 26.4988C707.54 26.7749 707.557 26.9129 707.653 27.0101C707.749 27.1074 707.886 27.126 708.16 27.1633C709.151 27.2981 710.162 27.3633 711.181 27.3604C715.834 27.3469 720.512 25.9109 723.965 23.3776L723.975 23.3706L725.258 22.4466Z" fill="white"/>
<path d="M753.029 36.5H747.621L756.069 12.82H761.125L769.541 36.5H764.037L762.373 31.508H754.725L753.029 36.5ZM757.925 22.1L756.229 27.156H760.901L759.205 22.1C758.949 21.3 758.661 20.372 758.565 19.796C758.469 20.34 758.213 21.236 757.925 22.1ZM771.689 44.18V20.5H776.329L776.585 22.452C777.481 20.98 779.497 19.988 781.769 19.988C786.217 19.988 789.321 23.092 789.321 28.244C789.321 33.3 786.569 36.948 781.801 36.948C779.593 36.948 777.545 36.116 776.617 34.9V44.18H771.689ZM776.649 28.5C776.649 30.9 778.249 32.5 780.553 32.5C782.889 32.5 784.361 30.868 784.361 28.5C784.361 26.132 782.889 24.5 780.553 24.5C778.249 24.5 776.649 26.1 776.649 28.5ZM797.086 36.5H792.158V12.372H797.086V36.5ZM811.407 20.5H816.335V36.5H811.695L811.375 34.708C810.383 36.02 808.399 36.916 806.479 36.916C802.831 36.916 800.591 34.484 800.591 30.548V20.5H805.519V28.756C805.519 31.38 806.415 32.532 808.431 32.532C810.543 32.532 811.407 31.444 811.407 28.82V20.5ZM824.097 36.5H818.497L823.873 28.756L818.497 20.5H824.193L827.137 25.364L829.889 20.5H835.393L830.113 28.66L835.201 36.5H829.537L826.785 31.892L824.097 36.5ZM845.521 19.604C845.521 15.636 848.721 12.948 853.489 12.948C857.905 12.948 860.753 15.412 861.009 19.412H857.841C857.681 17.108 856.049 15.764 853.457 15.764C850.545 15.764 848.657 17.236 848.657 19.508C848.657 21.364 849.713 22.484 851.889 22.996L855.697 23.892C859.473 24.756 861.393 26.804 861.393 30.068C861.393 34.228 858.161 36.884 853.233 36.884C848.529 36.884 845.393 34.42 845.201 30.452H848.401C848.465 32.66 850.321 34.068 853.233 34.068C856.305 34.068 858.257 32.628 858.257 30.324C858.257 28.5 857.265 27.348 855.057 26.836L851.249 25.972C847.473 25.108 845.521 22.932 845.521 19.604ZM869.238 36.5H866.23V23.38H863.158V20.852H866.23V15.956H869.238V20.852H872.31V23.38H869.238V36.5ZM885.825 20.852H888.801V36.5H886.113L885.793 34.132C884.897 35.764 882.817 36.884 880.513 36.884C876.865 36.884 874.817 34.42 874.817 30.58V20.852H877.825V29.588C877.825 32.948 879.265 34.228 881.569 34.228C884.321 34.228 885.825 32.468 885.825 29.108V20.852ZM899.125 36.884C894.581 36.884 891.829 33.492 891.829 28.724C891.829 23.924 894.613 20.404 899.253 20.404C901.653 20.404 903.669 21.46 904.725 23.38V12.948H907.701V36.5H905.013L904.757 33.652C903.733 35.796 901.621 36.884 899.125 36.884ZM899.733 34.164C902.805 34.164 904.693 31.892 904.693 28.628C904.693 25.428 902.805 23.124 899.733 23.124C896.661 23.124 894.869 25.428 894.869 28.628C894.869 31.86 896.661 34.164 899.733 34.164ZM913.513 17.14C912.425 17.14 911.529 16.244 911.529 15.156C911.529 14.036 912.425 13.172 913.513 13.172C914.601 13.172 915.497 14.036 915.497 15.156C915.497 16.244 914.601 17.14 913.513 17.14ZM912.041 36.5V20.852H915.049V36.5H912.041ZM918.392 28.66C918.392 23.828 921.848 20.436 926.552 20.436C931.224 20.436 934.68 23.828 934.68 28.66C934.68 33.492 931.224 36.884 926.552 36.884C921.848 36.884 918.392 33.492 918.392 28.66ZM921.432 28.66C921.432 31.924 923.512 34.196 926.552 34.196C929.56 34.196 931.672 31.924 931.672 28.66C931.672 25.396 929.56 23.124 926.552 23.124C923.512 23.124 921.432 25.396 921.432 28.66Z" fill="#171717"/>
<rect x="1031" width="48" height="48" rx="16" fill="#171717"/>
<path d="M1052.06 10.2981C1051.95 10.4792 1051.78 10.7152 1051.55 11.0374C1049.09 14.4734 1047.83 19.1378 1047.82 23.7327C1047.82 24.2198 1047.84 24.709 1047.86 25.1985C1047.88 25.4133 1047.88 25.5621 1047.88 25.6711C1047.79 25.6396 1047.67 25.5936 1047.49 25.5237C1045.77 24.8336 1044.21 23.8734 1042.89 22.636L1042.87 22.6194L1042.86 22.6057L1041.51 21.4358C1041.47 21.3982 1041.43 21.3691 1041.41 21.344C1041.4 21.3361 1041.39 21.3287 1041.38 21.3225C1041.38 21.3152 1041.39 21.3071 1041.39 21.2981C1041.39 21.2628 1041.4 21.2217 1041.41 21.1672C1042.46 16.0055 1046.33 11.8793 1051.32 10.4915C1051.64 10.4027 1051.88 10.3378 1052.06 10.2981Z" stroke="white"/>
<path d="M1040.74 24.9933C1040.71 24.9671 1040.66 24.9909 1040.67 25.0311C1041.12 31.4711 1045.75 36.7487 1051.85 38.1332C1052.73 38.3337 1053.17 38.434 1053.32 38.1897C1053.47 37.9455 1053.16 37.5612 1052.54 36.7928C1050.89 34.768 1049.77 32.3652 1049.09 29.8277C1049.03 29.5959 1049 29.4799 1048.93 29.4037C1048.85 29.3275 1048.74 29.2957 1048.51 29.2323C1045.63 28.4387 1042.95 27.0536 1040.74 24.9933Z" fill="white"/>
<path d="M1068.69 26.5256C1067.69 32.036 1063.49 36.4187 1058.1 37.6448C1058.05 37.6557 1058.02 37.6637 1057.99 37.6702C1057.98 37.6715 1057.97 37.672 1057.97 37.6731C1057.96 37.6684 1057.96 37.6634 1057.95 37.6575C1057.93 37.6354 1057.9 37.6091 1057.86 37.5745L1056.26 36.1086C1054.72 34.7079 1053.57 32.9085 1052.78 30.8811C1052.71 30.7015 1052.66 30.5754 1052.63 30.4817C1052.66 30.482 1052.7 30.4801 1052.73 30.4817L1053.1 30.5022C1053.68 30.5411 1054.27 30.5596 1054.86 30.5579C1059.76 30.5437 1064.75 29.1384 1068.69 26.5256Z" stroke="white"/>
<path d="M1068.92 22.4466C1069.12 22.3092 1069.21 22.2404 1069.25 22.1348C1069.3 22.029 1069.28 21.9166 1069.25 21.6916C1068.28 15.5901 1063.54 10.7572 1057.51 9.70247C1057.32 9.66881 1057.22 9.65199 1057.13 9.68289C1057.03 9.71381 1056.96 9.78692 1056.82 9.93316L1055.36 11.4488L1055.35 11.4584C1052.63 14.1695 1051.01 18.839 1051 23.7374C1051 24.6644 1051.06 25.5886 1051.17 26.4988C1051.21 26.7749 1051.22 26.9129 1051.32 27.0101C1051.42 27.1074 1051.55 27.126 1051.83 27.1633C1052.82 27.2981 1053.83 27.3633 1054.85 27.3604C1059.5 27.3469 1064.18 25.9109 1067.63 23.3776L1067.64 23.3706L1068.92 22.4466Z" fill="white"/>
<path d="M1096.7 36.5H1091.29L1099.74 12.82H1104.79L1113.21 36.5H1107.7L1106.04 31.508H1098.39L1096.7 36.5ZM1101.59 22.1L1099.9 27.156H1104.57L1102.87 22.1C1102.62 21.3 1102.33 20.372 1102.23 19.796C1102.14 20.34 1101.88 21.236 1101.59 22.1ZM1115.36 44.18V20.5H1120L1120.25 22.452C1121.15 20.98 1123.16 19.988 1125.44 19.988C1129.88 19.988 1132.99 23.092 1132.99 28.244C1132.99 33.3 1130.24 36.948 1125.47 36.948C1123.26 36.948 1121.21 36.116 1120.28 34.9V44.18H1115.36ZM1120.32 28.5C1120.32 30.9 1121.92 32.5 1124.22 32.5C1126.56 32.5 1128.03 30.868 1128.03 28.5C1128.03 26.132 1126.56 24.5 1124.22 24.5C1121.92 24.5 1120.32 26.1 1120.32 28.5ZM1140.75 36.5H1135.82V12.372H1140.75V36.5ZM1155.07 20.5H1160V36.5H1155.36L1155.04 34.708C1154.05 36.02 1152.07 36.916 1150.15 36.916C1146.5 36.916 1144.26 34.484 1144.26 30.548V20.5H1149.19V28.756C1149.19 31.38 1150.08 32.532 1152.1 32.532C1154.21 32.532 1155.07 31.444 1155.07 28.82V20.5ZM1167.76 36.5H1162.16L1167.54 28.756L1162.16 20.5H1167.86L1170.8 25.364L1173.56 20.5H1179.06L1173.78 28.66L1178.87 36.5H1173.2L1170.45 31.892L1167.76 36.5ZM1189.19 19.604C1189.19 15.636 1192.39 12.948 1197.16 12.948C1201.57 12.948 1204.42 15.412 1204.68 19.412H1201.51C1201.35 17.108 1199.72 15.764 1197.12 15.764C1194.21 15.764 1192.32 17.236 1192.32 19.508C1192.32 21.364 1193.38 22.484 1195.56 22.996L1199.36 23.892C1203.14 24.756 1205.06 26.804 1205.06 30.068C1205.06 34.228 1201.83 36.884 1196.9 36.884C1192.2 36.884 1189.06 34.42 1188.87 30.452H1192.07C1192.13 32.66 1193.99 34.068 1196.9 34.068C1199.97 34.068 1201.92 32.628 1201.92 30.324C1201.92 28.5 1200.93 27.348 1198.72 26.836L1194.92 25.972C1191.14 25.108 1189.19 22.932 1189.19 19.604ZM1212.9 36.5H1209.9V23.38H1206.82V20.852H1209.9V15.956H1212.9V20.852H1215.98V23.38H1212.9V36.5ZM1229.49 20.852H1232.47V36.5H1229.78L1229.46 34.132C1228.56 35.764 1226.48 36.884 1224.18 36.884C1220.53 36.884 1218.48 34.42 1218.48 30.58V20.852H1221.49V29.588C1221.49 32.948 1222.93 34.228 1225.24 34.228C1227.99 34.228 1229.49 32.468 1229.49 29.108V20.852ZM1242.79 36.884C1238.25 36.884 1235.5 33.492 1235.5 28.724C1235.5 23.924 1238.28 20.404 1242.92 20.404C1245.32 20.404 1247.34 21.46 1248.39 23.38V12.948H1251.37V36.5H1248.68L1248.42 33.652C1247.4 35.796 1245.29 36.884 1242.79 36.884ZM1243.4 34.164C1246.47 34.164 1248.36 31.892 1248.36 28.628C1248.36 25.428 1246.47 23.124 1243.4 23.124C1240.33 23.124 1238.54 25.428 1238.54 28.628C1238.54 31.86 1240.33 34.164 1243.4 34.164ZM1257.18 17.14C1256.09 17.14 1255.2 16.244 1255.2 15.156C1255.2 14.036 1256.09 13.172 1257.18 13.172C1258.27 13.172 1259.16 14.036 1259.16 15.156C1259.16 16.244 1258.27 17.14 1257.18 17.14ZM1255.71 36.5V20.852H1258.72V36.5H1255.71ZM1262.06 28.66C1262.06 23.828 1265.51 20.436 1270.22 20.436C1274.89 20.436 1278.35 23.828 1278.35 28.66C1278.35 33.492 1274.89 36.884 1270.22 36.884C1265.51 36.884 1262.06 33.492 1262.06 28.66ZM1265.1 28.66C1265.1 31.924 1267.18 34.196 1270.22 34.196C1273.23 34.196 1275.34 31.924 1275.34 28.66C1275.34 25.396 1273.23 23.124 1270.22 23.124C1267.18 23.124 1265.1 25.396 1265.1 28.66Z" fill="#171717"/>
</g>
<rect width="1280" height="48" fill="url(#paint0_linear_91_1084)"/>
<defs>
<linearGradient id="paint0_linear_91_1084" x1="0" y1="24" x2="1280" y2="24" gradientUnits="userSpaceOnUse">
<stop stop-color="#F6F7F9"/>
<stop offset="0.5" stop-color="#F6F7F9" stop-opacity="0"/>
<stop offset="1" stop-color="#F6F7F9"/>
</linearGradient>
</defs>
</svg>
