<svg width="648" height="576" viewBox="0 0 648 576" fill="none" xmlns="http://www.w3.org/2000/svg">
<rect x="2" y="66" width="644" height="444" rx="42" fill="#F5EDEC" stroke="url(#paint0_linear_91_1121)" stroke-width="4"/>
<g opacity="0.3" filter="url(#filter0_f_91_1121)">
<circle cx="324" cy="288" r="144" fill="#C72C18"/>
</g>
<rect x="206" y="170" width="236" height="236" rx="22" fill="url(#paint1_linear_91_1121)"/>
<rect x="206" y="170" width="236" height="236" rx="22" stroke="url(#paint2_linear_91_1121)" stroke-width="4"/>
<path d="M323.996 233.188C344.938 232.994 362.187 250.29 362.188 271.25C362.188 282.735 356.88 292.718 349.872 299.735L349.865 299.742L349.858 299.748C344.749 304.49 341.644 310.555 341.644 316.521V321.996H341.25V338.746H331.484C329.915 341.252 327.172 342.933 324 342.933C320.828 342.933 318.085 341.252 316.516 338.746H306.75V313.167C305.875 308.504 303.48 304.267 299.944 301.115L299.598 300.813C290.129 292.765 284.44 280.26 286.341 266.467V266.466C288.72 249.34 302.41 235.433 319.63 233.459L319.658 233.456H319.791C321.206 233.289 322.607 233.2 323.995 233.188H323.996ZM316.125 329.375H331.875V322H316.125V329.375ZM288.76 304.79L294.644 310.678L294.996 311.031L294.644 311.385L285.883 320.153L285.529 320.507L278.931 313.908L279.284 313.555L288.053 304.79L288.406 304.436L288.76 304.79ZM359.947 304.79L368.716 313.555L369.069 313.908L362.471 320.507L362.117 320.153L353.353 311.385L352.999 311.031L359.594 304.436L359.947 304.79ZM324.118 242.562L324.116 242.564L324.005 242.567C322.931 242.595 321.858 242.683 320.794 242.831L320.78 242.833V242.832C307.898 244.259 297.372 254.685 295.572 267.654C294.169 277.825 298.187 286.871 305.062 293.048L305.735 293.637L305.737 293.638C311.547 298.615 314.662 305.505 315.663 312.625H333.111C334.197 305.315 337.693 298.578 343.043 293.483L342.92 293.36L343.273 293.007C348.824 287.46 352.812 279.859 352.812 271.25C352.812 255.395 339.966 242.402 324.118 242.562ZM278.438 270.75V280.125H264.875V270.75H278.438ZM383.125 270.75V280.125H369.562V270.75H383.125ZM285.883 230.722L294.647 239.49L295.001 239.844L288.406 246.438L288.053 246.085L279.28 237.316L278.926 236.963L279.28 236.609L285.176 230.722L285.529 230.368L285.883 230.722ZM362.828 230.722L368.716 236.613L369.069 236.967L368.716 237.32L359.947 246.085L359.594 246.438L359.24 246.085L353.349 240.197L352.994 239.844L353.349 239.49L362.121 230.722L362.475 230.368L362.828 230.722Z" fill="#C72C18" stroke="#C72C18"/>
<defs>
<filter id="filter0_f_91_1121" x="36" y="0" width="576" height="576" filterUnits="userSpaceOnUse" color-interpolation-filters="sRGB">
<feFlood flood-opacity="0" result="BackgroundImageFix"/>
<feBlend mode="normal" in="SourceGraphic" in2="BackgroundImageFix" result="shape"/>
<feGaussianBlur stdDeviation="72" result="effect1_foregroundBlur_91_1121"/>
</filter>
<linearGradient id="paint0_linear_91_1121" x1="192.571" y1="-32.1786" x2="648.566" y2="409.981" gradientUnits="userSpaceOnUse">
<stop stop-color="white" stop-opacity="0.4"/>
<stop offset="0.1" stop-color="#F6F7F9"/>
<stop offset="0.9" stop-color="#F6F7F9" stop-opacity="0.0901961"/>
<stop offset="1" stop-color="white" stop-opacity="0.4"/>
</linearGradient>
<linearGradient id="paint1_linear_91_1121" x1="324" y1="168" x2="324" y2="408" gradientUnits="userSpaceOnUse">
<stop stop-color="white"/>
<stop offset="1" stop-color="#F3F3F3"/>
</linearGradient>
<linearGradient id="paint2_linear_91_1121" x1="274.714" y1="113.357" x2="504.411" y2="266.483" gradientUnits="userSpaceOnUse">
<stop stop-color="white" stop-opacity="0.4"/>
<stop offset="0.1" stop-color="#F6F7F9"/>
<stop offset="0.9" stop-color="#F6F7F9" stop-opacity="0.0901961"/>
<stop offset="1" stop-color="white" stop-opacity="0.4"/>
</linearGradient>
</defs>
</svg>
