<svg width="136" height="38" viewBox="0 0 136 38" fill="none" xmlns="http://www.w3.org/2000/svg">
<path d="M0 18.5285C0.0339254 18.2059 0.0665204 17.8826 0.103107 17.5599C0.852791 11.18 3.90209 6.24349 9.40665 2.88621C11.508 1.60104 13.8156 0.858003 16.2616 0.572631C21.6584 -0.0579822 26.4751 1.32498 30.6173 4.85122C33.8436 7.59652 35.9336 11.0715 36.7026 15.243C37.8873 21.6716 36.08 27.2726 31.655 32.0135C28.9011 34.9637 25.4414 36.7171 21.4561 37.3351C16.1192 38.16 11.3071 36.8495 7.07112 33.5135C4.37571 31.3909 2.34817 28.7453 1.1355 25.5138C0.512276 23.8675 0.146988 22.1348 0.0525511 20.3771C0.0412357 20.2774 0.0236843 20.1785 0 20.0811L0 18.5285ZM18.9616 34.9763C19.5304 34.9457 20.0998 34.9304 20.6659 34.8778C20.9485 34.8497 21.2264 34.7855 21.4927 34.6869C21.8626 34.5539 21.8972 34.2213 21.5593 34.0144C21.3757 33.9034 21.1651 33.8452 20.9506 33.8461C20.1583 33.8694 19.386 33.7457 18.6224 33.5754C15.4334 32.8683 12.6282 31.4414 10.4171 29.0094C7.19019 25.4665 6.17575 21.299 7.36247 16.6958C8.3217 12.9787 10.7444 10.3857 14.258 8.87304C16.976 7.70029 19.7379 7.68033 22.4606 8.91229C26.0401 10.5327 27.8328 13.9632 27.1443 17.8121C26.7352 20.0977 25.6622 22.0228 23.9739 23.5993C23.0127 24.4973 21.9291 25.2118 20.628 25.5284C19.3594 25.8384 18.4328 25.4925 17.7383 24.3889C17.312 23.7002 16.9219 22.9897 16.5696 22.2603C15.7859 20.6704 15.1487 19.0081 14.1595 17.52C14.0617 17.3724 14.0524 17.1156 14.0977 16.9333C14.2221 16.4284 14.8134 16.002 15.3309 15.9827C15.9569 15.9581 16.3886 16.306 16.7033 16.773C17.1415 17.4227 17.5447 18.0953 17.9113 18.7879C18.5998 20.089 19.2543 21.4088 19.9122 22.7259C20.0107 22.9255 20.1324 22.9547 20.3246 22.9122C20.8651 22.7865 21.3661 22.529 21.7828 22.1625C23.1857 20.9698 24.0691 19.4584 24.4436 17.6637C24.7469 16.1969 24.6072 14.7648 23.8017 13.4729C22.4267 11.2684 20.3426 10.421 17.8361 10.6292C15.4254 10.8287 13.4238 11.941 11.8586 13.7769C10.2621 15.6521 9.58958 17.8639 9.6694 20.3086C9.75588 22.9807 10.7084 25.3149 12.5105 27.2865C13.7118 28.601 15.1593 29.5975 16.7605 30.3631C19.4146 31.6317 22.1939 32.0547 25.0642 31.3277C29.4386 30.2201 32.3149 27.4435 33.7711 23.2009C34.5646 20.8866 34.6212 18.5059 34.2015 16.1065C33.6427 12.9082 32.3036 10.0811 29.9628 7.82269C25.7148 3.72437 20.6433 2.31879 14.8873 3.60729C11.3524 4.39888 8.49465 6.35059 6.24693 9.17039C3.16837 13.0319 2.01158 17.395 3.07324 22.2436C4.66773 29.517 11.1754 35.0062 18.9616 34.9763Z" fill="#C72C18"/>
<path d="M65.3761 18.7938C65.1266 21.0395 66.7471 23.3172 68.9017 23.735C70.1489 23.9764 71.3363 23.7483 72.4272 23.0697C73.3346 22.5037 74.1122 21.7786 74.8619 21.0309C75.3275 20.5653 76.4717 20.5493 76.9786 20.9644C77.4362 21.3382 77.5965 21.9462 77.3843 22.638C77.095 23.5793 76.4916 24.301 75.74 24.9064C74.5486 25.8683 73.1676 26.4044 71.6682 26.6253C69.9434 26.8787 68.2205 26.8248 66.5462 26.3073C63.5355 25.376 61.7447 23.2986 61.0795 20.2626C60.5806 17.9843 60.6911 15.7186 61.5851 13.5374C62.6414 10.9597 64.5905 9.43174 67.2945 8.86632C69.1052 8.48848 70.9272 8.49314 72.678 9.1324C75.5736 10.1967 77.2493 12.2828 77.683 15.3441C77.7741 15.9887 77.7708 16.6326 77.5846 17.2658C77.4262 17.8033 77.0983 18.1852 76.5735 18.3967C75.7912 18.7147 74.971 18.7892 74.1388 18.7898C71.3343 18.7925 68.5294 18.7925 65.724 18.7898L65.3761 18.7938ZM65.3488 16.2514H73.4989C73.3539 15.5968 73.2647 14.9629 73.0712 14.3622C72.0561 11.2145 68.45 11.2132 66.9513 12.5801C65.869 13.5647 65.5264 14.8531 65.3488 16.2514Z" fill="#C72C18"/>
<path d="M108.894 8.60689C110.85 8.65346 112.677 9.09382 114.29 10.2353C116.034 11.4699 117.066 13.1775 117.507 15.2463C117.979 17.4647 117.884 19.6559 116.988 21.76C115.815 24.5132 113.677 26.0758 110.761 26.592C109.108 26.884 107.453 26.8381 105.851 26.3113C102.816 25.3135 100.967 23.2015 100.286 20.1023C99.8153 17.9623 99.9211 15.8323 100.74 13.7789C101.871 10.9497 104.017 9.36389 106.97 8.81577C107.601 8.69536 108.251 8.67341 108.894 8.60689ZM104.494 18.0528C104.506 18.9774 104.687 19.8922 105.027 20.7522C106.091 23.4243 108.63 23.8926 110.513 23.1383C111.819 22.6154 112.547 21.5564 112.957 20.2619C113.294 19.1976 113.356 18.1007 113.29 16.9905C113.229 16.0718 113.069 15.1764 112.658 14.3449C111.901 12.815 110.695 11.9555 108.954 11.9389C107.196 11.9223 105.943 12.7292 105.18 14.3017C104.655 15.3687 104.495 16.5142 104.493 18.0528H104.494Z" fill="#C72C18"/>
<path d="M121.452 20.0298C121.452 18.6415 121.484 17.2526 121.444 15.8656C121.39 13.9771 122.109 12.4345 123.351 11.0522C126.4 7.65967 131.754 7.88451 134.464 11.5544C134.778 11.9639 135.071 12.3891 135.341 12.8283C135.758 13.5334 135.925 14.323 135.94 15.1312C135.973 17.3031 135.98 19.4757 135.994 21.6502C135.999 22.5729 136.005 23.4955 135.994 24.4181C135.983 25.098 135.833 25.7419 135.314 26.2302C134.715 26.7962 133.994 26.8814 133.242 26.6226C132.469 26.3565 132.099 25.7446 131.979 24.9676C131.942 24.712 131.925 24.4541 131.927 24.196C131.917 22.1338 131.927 20.0717 131.899 18.0142C131.899 17.368 131.832 16.7236 131.7 16.0911C131.434 14.9037 130.745 14.0077 129.571 13.58C128.415 13.1576 127.17 13.6259 126.364 14.7042C125.842 15.402 125.607 16.1976 125.593 17.047C125.552 19.3992 125.547 21.7527 125.517 24.1055C125.518 24.4672 125.482 24.828 125.41 25.1825C125.184 26.2022 124.421 26.773 123.366 26.7497C122.451 26.7291 121.703 26.0712 121.518 25.096C121.47 24.8327 121.446 24.5654 121.447 24.2977C121.44 22.8749 121.444 21.4527 121.444 20.0298H121.452Z" fill="#C72C18"/>
<path d="M85.2531 18.6794V19.0553C85.2531 20.9179 85.2531 22.7804 85.2531 24.643C85.2531 25.1885 85.1706 25.716 84.7941 26.141C84.2859 26.7171 83.6267 26.8229 82.9262 26.628C82.2258 26.4331 81.8985 25.8843 81.7894 25.1984C81.7519 24.9427 81.7344 24.6845 81.7369 24.4261C81.7342 19.8894 81.7342 15.353 81.7369 10.8167C81.737 10.5411 81.7673 10.2663 81.8273 9.9972C82.0269 9.1045 82.6202 8.6668 83.5722 8.68808C84.4043 8.70538 85.021 9.22025 85.182 10.0551C85.227 10.3006 85.2493 10.5498 85.2485 10.7994C85.2545 12.3607 85.2485 13.9219 85.2485 15.4825C85.2485 15.8284 85.2485 15.829 85.5811 15.829C87.9199 15.829 90.2594 15.8257 92.5983 15.835C92.8458 15.835 92.9183 15.7685 92.9163 15.5184C92.9056 13.9146 92.9083 12.3101 92.9123 10.7056C92.9123 10.1615 93.0067 9.63733 93.3859 9.21359C93.8815 8.66081 94.5168 8.58631 95.1906 8.75527C95.8744 8.92756 96.2297 9.42779 96.3634 10.095C96.4028 10.2979 96.4224 10.5042 96.4219 10.711C96.4254 15.3594 96.4254 20.0081 96.4219 24.657C96.4219 25.2031 96.3294 25.7279 95.9523 26.151C95.4474 26.7171 94.7961 26.8162 94.1043 26.632C93.4331 26.4517 93.0972 25.9415 92.9735 25.2862C92.9317 25.0574 92.9114 24.8251 92.9129 24.5924C92.9085 22.7214 92.9085 20.85 92.9129 18.9781C92.9129 18.7453 92.8571 18.6715 92.6136 18.6728C90.2575 18.6814 87.9013 18.6781 85.5445 18.6781L85.2531 18.6794Z" fill="#C72C18"/>
<path d="M49.4658 21.5185C49.7758 20.679 50.0592 19.914 50.3412 19.149C51.3949 16.2896 52.4495 13.4312 53.5049 10.5739C53.6282 10.2432 53.7777 9.9229 53.9519 9.61601C54.51 8.62619 55.7287 8.34148 56.6886 8.96145C57.4463 9.45037 57.7888 10.1934 57.5341 11.0495C57.2813 11.8957 56.946 12.7192 56.6167 13.5414C55.1635 17.1698 53.7025 20.7941 52.2337 24.4141C52.0714 24.8128 51.8758 25.1971 51.649 25.5629C51.0749 26.4942 50.2042 26.8142 49.1478 26.7277C48.1554 26.6466 47.4609 26.1097 47.0691 25.2377C46.4132 23.7782 45.8052 22.2975 45.2005 20.8147C44.016 17.9051 42.8424 14.9911 41.6796 12.0726C41.5335 11.7049 41.4221 11.3243 41.347 10.9358C41.1255 9.79295 42.0036 9.0007 42.7333 8.76189C43.247 8.59703 43.8013 8.60944 44.3072 8.79714C44.4719 8.85231 44.6229 8.94196 44.7502 9.0601C44.8775 9.17825 44.9782 9.32218 45.0455 9.4823C45.3522 10.1927 45.6622 10.9032 45.9243 11.6309C47.0757 14.8285 48.2106 18.0328 49.3521 21.2345C49.3747 21.305 49.4059 21.3735 49.4658 21.5185Z" fill="#C72C18"/>
<path d="M47.1561 31.8425H47.7921C47.5659 32.5948 47.3437 33.3346 47.1222 34.0743C46.9273 34.7248 46.7264 35.3741 46.5428 36.028C46.4889 36.2195 46.4025 36.3 46.2022 36.2721C46.066 36.2633 45.9294 36.2633 45.7931 36.2721C45.4419 35.102 45.0914 33.9372 44.7195 32.6993C44.659 32.8729 44.6204 32.9753 44.5865 33.0798C44.2765 34.0729 43.9638 35.0654 43.6638 36.0619C43.6119 36.2355 43.5348 36.2867 43.3592 36.2821C42.9361 36.2721 42.9341 36.2821 42.8137 35.8703C42.4461 34.6069 42.0793 33.343 41.7135 32.0786C41.6922 32.0048 41.6789 31.929 41.6622 31.8538C42.2662 31.7873 42.2609 31.7873 42.4119 32.3447C42.674 33.3341 42.9374 34.323 43.2022 35.3115C43.2204 35.3875 43.2599 35.4567 43.3159 35.5111C43.6778 34.2898 44.0397 33.0674 44.4015 31.8438H45.0774L46.1058 35.4812L46.1723 35.4858C46.4976 34.2771 46.8235 33.0711 47.1561 31.8425Z" fill="#C72C18"/>
<path d="M80.2509 35.4738C80.4132 34.8791 80.5753 34.2846 80.7372 33.6904C80.8789 33.1675 81.0325 32.6473 81.1529 32.1192C81.2048 31.8917 81.2946 31.7926 81.5301 31.8298C81.6446 31.838 81.7595 31.838 81.874 31.8298C81.7011 32.4006 81.5348 32.948 81.3705 33.4961C81.1157 34.3443 80.8589 35.1924 80.6121 36.0432C80.5642 36.2082 80.4984 36.302 80.3128 36.2681C80.2443 36.2564 80.1744 36.2564 80.1059 36.2681C79.911 36.3006 79.8465 36.2015 79.7946 36.0279C79.5026 35.0201 79.1959 34.017 78.8932 33.0119C78.8686 32.9307 78.8407 32.8502 78.7941 32.7066C78.7382 32.8642 78.699 32.9646 78.6671 33.0678C78.3577 34.0609 78.0351 35.0507 77.7484 36.0505C77.6526 36.3831 77.4225 36.2361 77.2382 36.2714C77.0539 36.3066 76.9888 36.2142 76.9409 36.0452C76.5644 34.7215 76.1772 33.4017 75.7947 32.0799C75.7734 32.0061 75.7581 31.9309 75.7395 31.8518C75.7654 31.8428 75.7922 31.8363 75.8193 31.8325C76.3515 31.8132 76.3515 31.8138 76.4899 32.3334C76.7699 33.3884 77.0533 34.4427 77.3952 35.5077L78.4808 31.8405H79.1593L80.1837 35.4811L80.2509 35.4738Z" fill="#C72C18"/>
<path d="M129.705 32.7771H130.259C130.273 32.9102 130.287 33.0432 130.303 33.1849C131.11 32.4179 132.303 32.6441 132.764 33.447C132.862 33.2651 133 33.1076 133.167 32.9861C133.334 32.8645 133.527 32.782 133.73 32.7445C134.668 32.5509 135.447 33.0997 135.502 34.055C135.542 34.7594 135.509 35.4679 135.508 36.1743C135.502 36.2031 135.493 36.2309 135.479 36.2568H134.922V35.1399C134.922 34.8213 134.928 34.502 134.922 34.1834C134.91 33.6512 134.574 33.2654 134.096 33.2181C133.468 33.1563 133.037 33.439 132.934 34.0164C132.898 34.2809 132.884 34.5479 132.892 34.8146C132.886 35.2876 132.892 35.7606 132.892 36.2515H132.336C132.331 36.1603 132.322 36.0612 132.321 35.9621C132.311 35.3335 132.331 34.7029 132.286 34.0769C132.242 33.4856 131.843 33.1929 131.209 33.2195C130.697 33.2381 130.311 33.6119 130.292 34.1508C130.271 34.7534 130.284 35.3574 130.283 35.9608C130.283 36.0539 130.283 36.147 130.283 36.2548H129.705V32.7771Z" fill="#C72C18"/>
<path d="M59.0594 34.3363H57.2487V33.9119H59.6688C59.8963 34.8871 59.1206 35.982 58.0204 36.2468C56.7565 36.5501 55.4999 35.8337 55.2079 34.6436C54.8953 33.3691 55.5964 32.1498 56.817 31.8498C57.9924 31.5577 59.2883 32.1504 59.5364 33.1137C59.3441 33.1137 59.1566 33.123 58.971 33.1083C58.9006 33.0947 58.8383 33.0541 58.7973 32.9952C58.3723 32.3919 57.733 32.1611 56.9807 32.344C56.6567 32.4251 56.3656 32.6044 56.1475 32.8574C55.9293 33.1103 55.7947 33.4245 55.762 33.7569C55.6463 34.7467 56.1113 35.5104 56.9714 35.7412C57.9692 36.0073 58.9397 35.4226 59.0561 34.482C59.0598 34.4335 59.061 34.3849 59.0594 34.3363Z" fill="#C72C18"/>
<path d="M112.61 36.2681V31.8006C113.346 31.8352 114.078 31.7926 114.781 31.919C115.984 32.1352 116.651 33.2028 116.451 34.4281C116.268 35.5424 115.497 36.2102 114.295 36.2641C113.745 36.2887 113.192 36.2681 112.61 36.2681ZM113.192 32.2602C113.192 33.4277 113.192 34.5306 113.192 35.6335C113.192 35.7758 113.259 35.8084 113.385 35.8071C113.651 35.8031 113.917 35.8198 114.187 35.8025C114.907 35.7552 115.528 35.5051 115.745 34.7548C115.845 34.3741 115.866 33.9771 115.807 33.588C115.71 32.8895 115.252 32.4651 114.565 32.3474C114.127 32.2729 113.675 32.2882 113.192 32.2602Z" fill="#C72C18"/>
<path d="M71.6278 35.6807C71.6944 35.4752 71.7389 35.3328 71.7789 35.1891C71.9731 34.4933 72.182 33.8008 72.3503 33.0991C72.4168 32.8243 72.5319 32.7186 72.8019 32.7665C72.8685 32.7778 72.935 32.7751 73.0328 32.7811L71.9126 36.2461C71.8829 36.2546 71.8527 36.2609 71.8221 36.2648C71.2899 36.2807 71.2899 36.2807 71.1303 35.7725C70.9201 35.1073 70.7105 34.4421 70.5017 33.7769C70.479 33.7057 70.4504 33.6372 70.4032 33.5108C70.2303 34.0503 70.0759 34.5319 69.9229 35.0135C69.8185 35.3415 69.6981 35.6654 69.6203 35.9993C69.569 36.2215 69.4673 36.2987 69.2511 36.2694C69.1383 36.2623 69.0252 36.2623 68.9125 36.2694L67.7843 32.8057C67.8002 32.7959 67.8169 32.7874 67.8342 32.7804C68.3664 32.7285 68.3664 32.7279 68.5107 33.2374C68.7196 33.974 68.9282 34.7104 69.1367 35.4466C69.154 35.5084 69.1826 35.5676 69.2305 35.6907L70.1245 32.7877C70.7232 32.7265 70.7232 32.7272 70.8888 33.2847C71.0977 33.9942 71.3083 34.7038 71.5208 35.4133C71.544 35.4812 71.576 35.5477 71.6278 35.6807Z" fill="#C72C18"/>
<path d="M127.719 33.3325V32.7877H128.29V36.2561H127.719V35.6534C127.241 36.2228 126.685 36.4064 126.04 36.304C125.643 36.2463 125.283 36.0376 125.035 35.7213C124.465 35.0022 124.513 33.8201 125.135 33.1995C125.809 32.529 126.721 32.5662 127.719 33.3325ZM126.476 35.8224C127.201 35.8224 127.714 35.2902 127.718 34.5306C127.718 33.7603 127.202 33.2141 126.469 33.2161C125.751 33.2161 125.232 33.7689 125.236 34.5226C125.24 35.2763 125.757 35.8224 126.476 35.8224H126.476Z" fill="#C72C18"/>
<path d="M90.3133 33.3166C90.3213 33.1356 90.3292 32.9687 90.3372 32.7844H90.9V36.2474H90.3386C90.3312 36.0851 90.3239 35.9148 90.3126 35.6661C89.8649 36.2102 89.3235 36.3925 88.6968 36.31C88.2978 36.2633 87.9319 36.0649 87.6751 35.7559C87.0864 35.0547 87.1043 33.8866 87.7117 33.2314C88.3562 32.5376 89.2789 32.5615 90.3133 33.3166ZM89.074 35.8224C89.8057 35.8224 90.3199 35.2962 90.3259 34.5405C90.3326 33.7682 89.817 33.2174 89.0873 33.2161C88.3576 33.2148 87.85 33.7536 87.844 34.5126C87.8381 35.2716 88.3602 35.8204 89.074 35.8224Z" fill="#C72C18"/>
<path d="M120.824 34.7328C120.822 34.8894 120.853 35.0446 120.915 35.1883C120.977 35.3321 121.069 35.4611 121.184 35.5668C121.3 35.6726 121.436 35.7528 121.585 35.8021C121.733 35.8515 121.891 35.8688 122.046 35.853C122.427 35.8204 122.742 35.6794 122.949 35.3342C123.001 35.2652 123.078 35.2196 123.163 35.2071C123.338 35.1947 123.514 35.1929 123.689 35.2018C123.528 35.4479 123.429 35.6714 123.268 35.8331C122.747 36.3566 122.096 36.4318 121.419 36.2521C120.783 36.0858 120.371 35.6501 120.244 35.0049C120.111 34.3264 120.173 33.6652 120.725 33.1689C121.265 32.6833 121.915 32.6141 122.592 32.8164C123.346 33.0405 123.801 33.7683 123.719 34.5565C123.701 34.7341 123.6 34.7335 123.472 34.7335C122.696 34.7335 121.919 34.7335 121.144 34.7335L120.824 34.7328ZM120.824 34.2512H123.094C123.08 33.6206 122.64 33.2142 121.982 33.2048C121.324 33.1955 120.844 33.6246 120.823 34.2512H120.824Z" fill="#C72C18"/>
<path d="M49.2036 34.7327C49.1676 35.398 49.7717 35.9188 50.4389 35.8516C50.8207 35.813 51.132 35.6654 51.3316 35.3195C51.3557 35.2886 51.3858 35.2628 51.4201 35.2437C51.4544 35.2247 51.4921 35.2126 51.5311 35.2084C51.6879 35.1983 51.8451 35.1968 52.0021 35.2037C51.8863 35.664 51.603 35.9561 51.2145 36.151C50.4947 36.5148 49.5116 36.3379 48.9967 35.7671C48.4818 35.1964 48.412 34.1354 48.845 33.4695C49.2701 32.815 50.1801 32.5449 51.0116 32.8263C51.7194 33.0657 52.1391 33.7336 52.0952 34.5252C52.0859 34.7008 52.0107 34.7381 51.8537 34.7367C51.0774 34.7314 50.3012 34.7367 49.5255 34.7367L49.2036 34.7327ZM49.2102 34.2525H51.4659C51.4566 33.5999 50.9737 33.1881 50.2799 33.2028C49.6293 33.2194 49.1437 33.7782 49.2102 34.2525Z" fill="#C72C18"/>
<path d="M86.128 36.2601H85.5672V35.7945C85.5672 35.251 85.5739 34.7082 85.5672 34.1647C85.5606 33.6213 85.1774 33.2288 84.6453 33.2148C83.9954 33.1969 83.563 33.5228 83.5337 34.1055C83.5038 34.7169 83.5217 35.3295 83.5191 35.9415C83.5191 36.0426 83.5191 36.1411 83.5191 36.2555H82.9384V31.5831H83.5064V33.1317C83.8091 32.9986 84.0805 32.8257 84.3759 32.7565C85.3737 32.523 86.1533 33.1523 86.1593 34.1734C86.1633 34.8386 86.1593 35.5038 86.1593 36.165C86.1525 36.1978 86.142 36.2297 86.128 36.2601Z" fill="#C72C18"/>
<path d="M104.778 34.5286C104.778 35.6022 104.019 36.3313 102.915 36.3246C101.844 36.32 101.139 35.5976 101.139 34.5027C101.139 33.449 101.885 32.7166 102.961 32.7166C104.037 32.7166 104.78 33.4503 104.778 34.5286ZM102.928 35.8224C103.672 35.8224 104.197 35.2803 104.192 34.5146C104.188 33.749 103.675 33.2142 102.948 33.2162C102.221 33.2181 101.723 33.7483 101.724 34.5273C101.724 35.3062 102.206 35.8218 102.928 35.8224Z" fill="#C72C18"/>
<path d="M63.4334 34.5133C63.4294 33.4569 64.1731 32.7172 65.2454 32.7172C66.3177 32.7172 67.0707 33.4383 67.0747 34.4933C67.0793 35.5823 66.339 36.3226 65.2434 36.3253C64.1478 36.328 63.4367 35.6142 63.4334 34.5133ZM65.2254 35.8224C65.9698 35.8224 66.4946 35.2796 66.4893 34.5146C66.484 33.7496 65.9711 33.2141 65.244 33.2161C64.517 33.2181 64.0201 33.7483 64.0207 34.5279C64.0214 35.3075 64.5037 35.8217 65.2254 35.8224Z" fill="#C72C18"/>
<path d="M108.521 32.7811H109.102V36.2561H108.537C108.528 36.1231 108.519 35.998 108.509 35.841C108.452 35.8836 108.413 35.9076 108.376 35.9382C107.893 36.3679 107.339 36.4158 106.755 36.2182C106.202 36.0306 105.918 35.5996 105.89 35.0441C105.853 34.2978 105.88 33.5481 105.88 32.7824H106.443C106.447 32.8756 106.454 32.968 106.455 33.0605C106.46 33.6725 106.455 34.2851 106.471 34.8971C106.488 35.4512 106.87 35.8104 107.416 35.8204C108.05 35.8324 108.471 35.5084 108.501 34.9297C108.533 34.3191 108.514 33.7057 108.517 33.0938C108.522 32.994 108.521 32.8929 108.521 32.7811Z" fill="#C72C18"/>
<path d="M100.369 31.8325C100.266 32.0274 100.183 32.185 100.099 32.3414C99.7255 33.0305 99.347 33.7163 98.9825 34.4095C98.9175 34.5387 98.8821 34.6807 98.8787 34.8252C98.866 35.2969 98.874 35.7685 98.874 36.2541H98.2913C98.2913 35.9215 98.2694 35.5889 98.2966 35.2563C98.3332 34.8079 98.2161 34.4195 97.9893 34.0343C97.6135 33.397 97.2742 32.7385 96.9197 32.0879C96.8804 32.0154 96.8458 31.9389 96.7926 31.8305C96.9728 31.8205 97.1535 31.8232 97.3334 31.8385C97.4039 31.8491 97.4831 31.9356 97.5203 32.0068C97.831 32.6015 98.1323 33.2041 98.437 33.7995C98.4756 33.8753 98.5168 33.9498 98.58 34.0689C98.8228 33.5953 99.0456 33.1576 99.2712 32.7192C99.3845 32.5163 99.4871 32.3076 99.5785 32.0939C99.659 31.887 99.778 31.7912 100.002 31.8278C100.124 31.8383 100.247 31.8399 100.369 31.8325Z" fill="#C72C18"/>
<path d="M93.9356 36.29C93.603 36.2654 93.3043 36.2661 93.0103 36.2162C92.6777 36.159 92.4688 35.9308 92.4535 35.5929C92.4242 34.9656 92.4256 34.337 92.4156 33.7084C92.4156 33.572 92.4156 33.4357 92.4156 33.3053C91.9041 33.1623 91.9041 33.1623 91.9865 32.7798L92.4109 32.7565V31.909H93.0023V32.7658H93.9383V33.2514H93.0116V33.6299C93.0116 34.1813 93.0116 34.7328 93.0116 35.2843C93.0116 35.6561 93.136 35.7752 93.5099 35.7818C93.6429 35.7818 93.7819 35.7818 93.9356 35.7818V36.29Z" fill="#C72C18"/>
<path d="M62.5958 33.2807C62.5649 33.2922 62.5328 33.3 62.5 33.3039C61.8428 33.2733 61.4224 33.6472 61.451 34.4295C61.4723 35.0281 61.455 35.6328 61.455 36.2515H60.8802V32.7884H61.4403C61.4497 32.9301 61.4576 33.0651 61.4676 33.2195C61.6472 33.0864 61.8002 32.9361 61.9852 32.8476C62.1701 32.7591 62.373 32.7392 62.5958 32.6826V33.2807Z" fill="#C72C18"/>
<path d="M119.359 32.7299V33.292L119.093 33.3119C118.545 33.3525 118.228 33.6738 118.216 34.2319C118.203 34.8093 118.216 35.3867 118.212 35.9614V36.2528H117.634V32.7851H118.195C118.205 32.9228 118.216 33.0645 118.231 33.2607C118.546 32.8982 118.893 32.6953 119.359 32.7299Z" fill="#C72C18"/>
</svg>
